*
*
G04 PADS 9.5 Build Number: 522968 generated Gerber (RS-274-X) file*
G04 PC Version=2.1*
*
%IN "AD-15-RFID_0928.pcb"*%
*
%MOIN*%
*
%FSLAX35Y35*%
*
*
*
*
G04 PC Standard Apertures*
*
*
G04 Thermal Relief Aperture macro.*
%AMTER*
1,1,$1,0,0*
1,0,$1-$2,0,0*
21,0,$3,$4,0,0,45*
21,0,$3,$4,0,0,135*
%
*
*
G04 Annular Aperture macro.*
%AMANN*
1,1,$1,0,0*
1,0,$2,0,0*
%
*
*
G04 Odd Aperture macro.*
%AMODD*
1,1,$1,0,0*
1,0,$1-0.005,0,0*
%
*
*
G04 PC Custom Aperture Macros*
*
*
*
*
*
*
G04 PC Aperture Table*
*
%ADD010C,0.001*%
%ADD033C,0.01*%
%ADD034C,0.01969*%
%ADD036C,0.01181*%
%ADD058C,0.0315*%
%ADD060C,0.01575*%
%ADD061C,0.0063*%
%ADD118C,0.02362*%
%ADD178R,0.06X0.06*%
%ADD179C,0.06*%
%ADD374C,0.00866*%
%ADD517C,0.05905*%
*
*
*
*
G04 PC Circuitry*
G04 Layer Name AD-15-RFID_0928.pcb - circuitry*
%LPD*%
*
*
G04 PC Custom Flashes*
G04 Layer Name AD-15-RFID_0928.pcb - flashes*
%LPD*%
*
*
G04 PC Circuitry*
G04 Layer Name AD-15-RFID_0928.pcb - circuitry*
%LPD*%
*
G54D10*
G01X621654Y674331D02*
X621656D01*
X346063D02*
X346066D01*
X621654Y438110D02*
X621656D01*
X621654Y674331D02*
X621656D01*
G54D33*
X621654Y684016D02*
X502426D01*
X621654D02*
X611654Y681516D01*
Y686516*
X621654Y684016*
X346063D02*
X465290D01*
X346063D02*
X356063Y686516D01*
Y681516*
X346063Y684016*
X621654Y679331D02*
Y689016D01*
X346063Y679331D02*
Y689016D01*
X471472Y686828D02*
X469199Y680266D01*
X468290Y686828D02*
X471472D01*
X474881D02*
X474199Y686516D01*
X473745Y685578*
X473517Y684016*
Y683078*
X473745Y681516*
X474199Y680578*
X474881Y680266*
X475336*
X476017Y680578*
X476472Y681516*
X476699Y683078*
Y684016*
X476472Y685578*
X476017Y686516*
X475336Y686828*
X474881*
X478972Y680891D02*
X478745Y680578D01*
X478972Y680266*
X479199Y680578*
X478972Y680891*
X482608Y686828D02*
X481926Y686516D01*
X481472Y685578*
X481245Y684016*
Y683078*
X481472Y681516*
X481926Y680578*
X482608Y680266*
X483063*
X483745Y680578*
X484199Y681516*
X484426Y683078*
Y684016*
X484199Y685578*
X483745Y686516*
X483063Y686828*
X482608*
X486472Y684641D02*
Y680266D01*
Y683391D02*
X487154Y684328D01*
X487608Y684641*
X488290*
X488745Y684328*
X488972Y683391*
Y680266*
Y683391D02*
X489654Y684328D01*
X490108Y684641*
X490790*
X491245Y684328*
X491472Y683391*
Y680266*
X493517Y684641D02*
Y680266D01*
Y683391D02*
X494199Y684328D01*
X494654Y684641*
X495336*
X495790Y684328*
X496017Y683391*
Y680266*
Y683391D02*
X496699Y684328D01*
X497154Y684641*
X497836*
X498290Y684328*
X498517Y683391*
Y680266*
X641299Y438110D02*
Y549470D01*
Y438110D02*
X638799Y448110D01*
X643799*
X641299Y438110*
Y674331D02*
Y562970D01*
Y674331D02*
X643799Y664331D01*
X638799*
X641299Y674331*
X626654Y438110D02*
X646299D01*
X626654Y674331D02*
X646299D01*
X628572Y558095D02*
X628345Y558720D01*
X627663Y559033*
X627208*
X626526Y558720*
X626072Y557783*
X625845Y556220*
Y554658*
X626072Y553408*
X626526Y552783*
X627208Y552470*
X627436*
X628117Y552783*
X628572Y553408*
X628799Y554345*
Y554658*
X628572Y555595*
X628117Y556220*
X627436Y556533*
X627208*
X626526Y556220*
X626072Y555595*
X625845Y554658*
X632208Y559033D02*
X631526Y558720D01*
X631072Y557783*
X630845Y556220*
Y555283*
X631072Y553720*
X631526Y552783*
X632208Y552470*
X632663*
X633345Y552783*
X633799Y553720*
X634026Y555283*
Y556220*
X633799Y557783*
X633345Y558720*
X632663Y559033*
X632208*
X636299Y553095D02*
X636072Y552783D01*
X636299Y552470*
X636526Y552783*
X636299Y553095*
X639936Y559033D02*
X639254Y558720D01*
X638799Y557783*
X638572Y556220*
Y555283*
X638799Y553720*
X639254Y552783*
X639936Y552470*
X640390*
X641072Y552783*
X641526Y553720*
X641754Y555283*
Y556220*
X641526Y557783*
X641072Y558720*
X640390Y559033*
X639936*
X643799Y556845D02*
Y552470D01*
Y555595D02*
X644481Y556533D01*
X644936Y556845*
X645617*
X646072Y556533*
X646299Y555595*
Y552470*
Y555595D02*
X646981Y556533D01*
X647436Y556845*
X648117*
X648572Y556533*
X648799Y555595*
Y552470*
X650845Y556845D02*
Y552470D01*
Y555595D02*
X651526Y556533D01*
X651981Y556845*
X652663*
X653117Y556533*
X653345Y555595*
Y552470*
Y555595D02*
X654026Y556533D01*
X654481Y556845*
X655163*
X655617Y556533*
X655845Y555595*
Y552470*
G54D34*
X374134Y519370D02*
X377756Y522992D01*
Y544488*
X374134Y519370D02*
Y520079D01*
X372677Y521535*
Y517913*
X374134Y519370*
X372677Y521535D02*
X372559Y521654D01*
X379252Y545984D02*
X379843Y546575D01*
X389882*
X379252Y545984D02*
Y546535D01*
X377756Y548031*
X379213Y545945D02*
X377756D01*
Y548031*
Y550276*
X379409Y551929*
X387638*
X379213Y545945D02*
X377756Y544488D01*
Y545945*
X379213D02*
X379252Y545984D01*
X389882Y546575D02*
Y546614D01*
X389921Y546575*
X389882*
Y546496*
X397323Y552520D02*
X397205Y552441D01*
X392717*
X385866Y559291*
G54D36*
X372068Y481003D02*
X372715Y480356D01*
X377538Y475533D02*
X376891Y476180D01*
X377538Y481003D02*
X376891Y480356D01*
X382180Y643125D02*
X383705Y644650D01*
X382180Y650419D02*
X383705Y648893D01*
X389474Y650419D02*
X387948Y648893D01*
X389474Y643125D02*
X387948Y644650D01*
G54D58*
X428031Y476693D02*
X568031D01*
X409921Y494803D02*
G75*
G03X428031Y476693I18110J0D01*
G01X425591Y471732D02*
X570157D01*
X405157Y492165D02*
G03X425591Y471732I20434J0D01*
G01X568031Y476693D02*
G03X589488Y498150I0J21457D01*
G01X570157Y471732D02*
G03X593937Y495512I0J23780D01*
G01X432677Y480906D02*
X564528D01*
X414409Y499173D02*
G03X432677Y480906I18268J0D01*
G01X436142Y485276D02*
X561535D01*
X418976Y502441D02*
G03X436142Y485276I17166J-0D01*
G01X564528Y480906D02*
G03X584882Y501260I-0J20354D01*
G01X561535Y485276D02*
G03X580197Y503937I0J18661D01*
G01X405157Y492165D02*
Y519528D01*
X414409Y499173D02*
Y504094D01*
X409921Y494803D02*
Y502087D01*
X409882Y502126*
X409921Y498898D02*
X409882Y498937D01*
Y502126*
X589488Y498150D02*
Y544567D01*
X593937Y495512D02*
Y549291D01*
X418976Y502441D02*
Y553465D01*
X409882Y502126D02*
Y545866D01*
X414409Y504094D02*
X414449Y504134D01*
Y549488*
X584882Y501260D02*
Y548189D01*
X580197Y503937D02*
Y543504D01*
X414449Y549488D02*
G03X412611Y553924I-6273J0D01*
G01X580197Y543504D02*
X580121Y544485D01*
X584882Y548189D02*
G03X583184Y552289I-5798J-0D01*
G01X580121Y544485D02*
X580157Y544488D01*
X593937Y549291D02*
G03X591682Y554735I-7699J0D01*
G01X412611Y553924D02*
X412594Y553942D01*
X409921Y560394D02*
G03X412594Y553942I9125J-0D01*
G01X418976Y553465D02*
Y610984D01*
X414449Y559488D02*
Y613740D01*
X414502Y613794*
Y613819*
X580512Y558693D02*
G03X583151Y552322I9010J-0D01*
G01X583184Y552289D02*
X583151Y552322D01*
X580512Y558693D02*
Y610315D01*
X580591*
X589213Y560669D02*
G03X591662Y554755I8364J0D01*
G01X591682Y554735D02*
X591662Y554755D01*
X409921Y560394D02*
Y616063D01*
X589213Y560669D02*
Y616063D01*
X584882Y561299D02*
Y613780D01*
X584843*
X593898Y561417D02*
Y592288D01*
X593937Y592328*
X405157Y589528D02*
Y616929D01*
X593937Y592328D02*
Y617756D01*
X428386Y640157D02*
G03X405157Y616929I-0J-23228D01*
G01X434567Y626575D02*
G03X418976Y610984I-0J-15591D01*
G01X431707Y631024D02*
G03X414502Y613819I0J-17205D01*
G01X429567Y635709D02*
G03X409921Y616063I-0J-19646D01*
G01X584843Y613780D02*
G03X567638Y630984I-17205J-0D01*
G01X589213Y616063D02*
G03X569567Y635709I-19646J-0D01*
G01X580591Y610315D02*
G03X564331Y626575I-16260J-0D01*
G01X593937Y617756D02*
G03X571535Y640157I-22402J-0D01*
G01X434567Y626575D02*
X564331D01*
X429567Y635709D02*
X569567D01*
X567638Y630984D02*
Y631024D01*
X431707*
X571535Y640157D02*
X428386D01*
G54D60*
X387638Y551929D03*
X385945Y621457D03*
G54D61*
X379742Y646772D02*
G03X379742I-3915J0D01*
G01X359742D02*
G03X359742I-3915J0D01*
G01X390905Y439340D02*
Y544192D01*
G03X390498Y544493I-314J-0*
G01X388909Y544640D02*
G03X390498Y544493I973J1856D01*
G01X388909Y544640D02*
G03X388763Y544676I-146J-279D01*
G01X380760*
G03X380537Y544583I-0J-315*
G01X379747Y543794*
G03X379655Y543571I223J-223*
G01Y522992*
X379099Y521649D02*
G03X379655Y522992I-1343J1343D01*
G01X379099Y521649D02*
X375477Y518027D01*
X374695Y517245*
G03X374625Y517139I223J-223*
G01X370752Y518743D02*
G03X374625Y517139I1925J-830D01*
G01X370752Y518743D02*
G03X370778Y518868I-289J125D01*
G01Y520503*
X370778D02*
G03X370752Y520627I-315J-0D01*
G01X370853Y522489D02*
G03X370752Y520627I1824J-1032D01*
G01X370853Y522489D02*
G03X370861Y522503I-274J155D01*
G01X372609Y523552D02*
G03X370861Y522503I-50J-1898D01*
G01X372609Y523552D02*
G03X372625I8J315D01*
G01X374328Y522749D02*
G03X372625Y523552I-1651J-1292D01*
G01X374328Y522749D02*
G03X374798Y522720I248J194D01*
G01X375764Y523687*
G03X375857Y523909I-222J222*
G01Y528677*
G03X375450Y528978I-315J-0*
G01X373325Y529538D02*
G03X375450Y528978I1518J1446D01*
G01X373325Y529538D02*
G03X373097Y529636I-228J-217D01*
G01X363071*
X362118Y530031D02*
G03X363071Y529636I953J953D01*
G01X362118Y530031D02*
X361177Y530972D01*
G03X360639Y530749I-223J-223*
G01Y515925*
G03X360732Y515703I315J0*
G01X384811Y491623*
X385206Y490670D02*
G03X384811Y491623I-1348J-0D01*
G01X385206Y490670D02*
Y463084D01*
G03X385304Y462856I315J0*
G01X382532Y459716D02*
G03X385304Y462856I1326J1623D01*
G01X382532Y459716D02*
G03X382017Y459472I-200J-244D01*
G01Y451667*
G03X382115Y451439I315J-0*
G01X379224D02*
G03X382115I1445J-1518D01*
G01X379224D02*
G03X379321Y451667I-218J228D01*
G01Y489820*
G03X379229Y490043I-315J-0*
G01X370153Y499118*
G03X369616Y498896I-222J-222*
G01Y477618*
G03X369708Y477395I315J-0*
G01X370759Y476344*
G03X371270Y476695I223J223*
G01X373497Y481908D02*
G03X371270Y476695I1306J-3640D01*
G01X373497Y481908D02*
G03Y482501I-106J297D01*
G01X376109D02*
G03X373497I-1306J3641D01*
G01X376109D02*
G03Y481908I107J-296D01*
G01Y474627D02*
G03Y481908I-1306J3641D01*
G01Y474627D02*
G03Y474034I107J-296D01*
G01Y466753D02*
G03Y474034I-1306J3641D01*
G01Y466753D02*
G03Y466160I107J-296D01*
G01Y458879D02*
G03Y466160I-1306J3641D01*
G01Y458879D02*
G03Y458286I107J-296D01*
G01Y451005D02*
G03Y458286I-1306J3641D01*
G01Y451005D02*
G03Y450412I107J-296D01*
G01X373497D02*
G03X376109I1306J-3640D01*
G01X373497D02*
G03Y451005I-106J297D01*
G01Y458286D02*
G03Y451005I1306J-3640D01*
G01Y458286D02*
G03Y458879I-106J297D01*
G01X371206Y463942D02*
G03X373497Y458879I3597J-1422D01*
G01X371206Y463942D02*
G03X371136Y464280I-293J116D01*
G01X363259Y472157*
X362865Y473110D02*
G03X363259Y472157I1348J0D01*
G01X362865Y473110D02*
Y498955D01*
G03X362772Y499178I-315J0*
G01X353850Y508100*
X353455Y509054D02*
G03X353850Y508100I1348J-0D01*
G01X353455Y509054D02*
Y536647D01*
G03X353059Y536951I-315J-0*
G01X350424Y539027D02*
G03X353059Y536951I2096J-51D01*
G01X350424Y539027D02*
G03X350332Y539258I-315J8D01*
G01X347807Y541782*
X347571Y542102D02*
G03X347807Y541782I1190J633D01*
G01X347571Y542102D02*
G03X346978Y541953I-278J-149D01*
G01Y439340*
G03X347293Y439025I315J0*
G01X390591*
G03X390905Y439340I-0J315*
G01Y548801D02*
Y673101D01*
G03X390591Y673416I-314J-0*
G01X347293*
G03X346978Y673101I-0J-315*
G01Y594280*
G03X347571Y594132I315J0*
G01X347807Y594451D02*
G03X347571Y594132I954J-953D01*
G01X347807Y594451D02*
X362577Y609221D01*
X363530Y609616D02*
G03X362577Y609221I0J-1348D01*
G01X363530Y609616D02*
X373097D01*
G03X373325Y609713I-0J315*
G01X374675Y606178D02*
G03X373325Y609713I168J2090D01*
G01X374675Y606178D02*
G03X374336Y605885I-25J-314D01*
G01X373512Y604355D02*
G03X374336Y605885I-1268J1669D01*
G01X373512Y604355D02*
G03X373703Y603789I191J-251D01*
G01X378254*
G03X378482Y603887I0J315*
G01X379867Y600349D02*
G03X378482Y603887I133J2092D01*
G01X379867Y600349D02*
G03X379532Y600056I-20J-314D01*
G01X375923Y598751D02*
G03X379532Y600056I1518J1446D01*
G01X375923Y598751D02*
G03X375695Y598849I-228J-217D01*
G01X375256*
G03X375033Y598757I-0J-315*
G01X375008Y598732*
X374055Y598337D02*
G03X375008Y598732I0J1348D01*
G01X374055Y598337D02*
X363930D01*
G03X363708Y598245I0J-315*
G01X363707D02*
X357740Y592277D01*
G03X357647Y592054I222J-223*
G01Y579894*
G03X358185Y579671I315J0*
G01X368640Y590126*
X369593Y590521D02*
G03X368640Y590126I0J-1348D01*
G01X369593Y590521D02*
X378215D01*
G03X378443Y590619I-0J315*
G01X382039Y589447D02*
G03X378443Y590619I-2078J-274D01*
G01X382039Y589447D02*
G03X382378Y589175I312J42D01*
G01X381185Y585504D02*
G03X382378Y589175I1374J1583D01*
G01X381185Y585504D02*
G03X380978Y585581I-207J-238D01*
G01X370111*
G03X369889Y585489I0J-315*
G01X369654Y585254*
X360732Y576332*
G03X360639Y576109I222J-223*
G01Y561175*
G03X361071Y560883I315J0*
G01X363296Y557419D02*
G03X361071Y560883I-1446J1518D01*
G01X363296Y557419D02*
G03X363198Y557191I217J-228D01*
G01Y532894*
G03X363291Y532671I315J-0*
G01X363537Y532425*
G03X363760Y532332I223J222*
G01X373097*
G03X373325Y532430I-0J315*
G01X375450Y532990D02*
G03X373325Y532430I-607J-2006D01*
G01X375450Y532990D02*
G03X375857Y533292I92J302D01*
G01Y544488*
Y545945*
Y548031*
Y550276*
X376413Y551619D02*
G03X375857Y550276I1343J-1343D01*
G01X376413Y551619D02*
X378066Y553272D01*
X379409Y553828D02*
G03X378066Y553272I0J-1899D01*
G01X379409Y553828D02*
X387638D01*
Y550030D02*
G03Y553828I-0J1899D01*
G01Y550030D02*
X380327D01*
G03X380104Y549938I-0J-315*
G01X379747Y549581*
G03X379655Y549358I223J-223*
G01Y548949*
G03X379747Y548726I315J-0*
G01X379907Y548566*
G03X380130Y548474I223J223*
G01X389137*
G03X389234Y548489I-0J315*
G01X390498Y548500D02*
G03X389234Y548489I-616J-2004D01*
G01X390498Y548500D02*
G03X390905Y548801I93J301D01*
G01X384542Y622420D02*
G03X387348I1403J-963D01*
G01X384542D02*
G03X384597Y622599I-260J179D01*
G01Y625965*
G03X384505Y626187I-315J-0*
G01X367624Y643068*
G03X367284Y643138I-223J-222*
G01X369461Y645315D02*
G03X367284Y643138I-3634J1457D01*
G01X369461Y645315D02*
G03X369530Y644975I292J-118D01*
G01X386898Y627607*
X387293Y626654D02*
G03X386898Y627607I-1348J-0D01*
G01X387293Y626654D02*
Y622599D01*
G03X387348Y622420I315J-0*
G01X389742Y649772D02*
Y643772D01*
X388827Y642857D02*
G03X389742Y643772I-0J915D01*
G01X388827Y642857D02*
X382827D01*
X381912Y643772D02*
G03X382827Y642857I915J-0D01*
G01X381912Y643772D02*
Y649772D01*
X382827Y650687D02*
G03X381912Y649772I-0J-915D01*
G01X382827Y650687D02*
X388827D01*
X389742Y649772D02*
G03X388827Y650687I-915J-0D01*
G01X379742Y646772D02*
G03X379742I-3915J0D01*
G01X359742D02*
G03X359742I-3915J0D01*
G01X346978Y672621D02*
X390905D01*
X346978Y672054D02*
X390905D01*
X346978Y671487D02*
X390905D01*
X346978Y670920D02*
X390905D01*
X346978Y670353D02*
X390905D01*
X346978Y669786D02*
X390905D01*
X346978Y669219D02*
X390905D01*
X346978Y668652D02*
X390905D01*
X346978Y668085D02*
X390905D01*
X346978Y667518D02*
X390905D01*
X346978Y666951D02*
X390905D01*
X346978Y666385D02*
X390905D01*
X346978Y665818D02*
X390905D01*
X346978Y665251D02*
X390905D01*
X346978Y664684D02*
X390905D01*
X346978Y664117D02*
X390905D01*
X346978Y663550D02*
X390905D01*
X346978Y662983D02*
X390905D01*
X346978Y662416D02*
X390905D01*
X346978Y661849D02*
X390905D01*
X346978Y661282D02*
X390905D01*
X346978Y660715D02*
X390905D01*
X346978Y660148D02*
X390905D01*
X346978Y659581D02*
X390905D01*
X346978Y659014D02*
X390905D01*
X346978Y658448D02*
X390905D01*
X346978Y657881D02*
X390905D01*
X346978Y657314D02*
X390905D01*
X346978Y656747D02*
X390905D01*
X346978Y656180D02*
X390905D01*
X346978Y655613D02*
X390905D01*
X346978Y655046D02*
X390905D01*
X346978Y654479D02*
X390905D01*
X346978Y653912D02*
X390905D01*
X346978Y653345D02*
X390905D01*
X346978Y652778D02*
X390905D01*
X346978Y652211D02*
X390905D01*
X346978Y651644D02*
X390905D01*
X346978Y651077D02*
X390905D01*
X389366Y650510D02*
X390905D01*
X389725Y649944D02*
X390905D01*
X389742Y649377D02*
X390905D01*
X389742Y648810D02*
X390905D01*
X389742Y648243D02*
X390905D01*
X389742Y647676D02*
X390905D01*
X389742Y647109D02*
X390905D01*
X389742Y646542D02*
X390905D01*
X389742Y645975D02*
X390905D01*
X389742Y645408D02*
X390905D01*
X389742Y644841D02*
X390905D01*
X389742Y644274D02*
X390905D01*
X389739Y643707D02*
X390905D01*
X389489Y643140D02*
X390905D01*
X371931Y642573D02*
X390905D01*
X372498Y642007D02*
X390905D01*
X373065Y641440D02*
X390905D01*
X373632Y640873D02*
X390905D01*
X374199Y640306D02*
X390905D01*
X374766Y639739D02*
X390905D01*
X375333Y639172D02*
X390905D01*
X375900Y638605D02*
X390905D01*
X376467Y638038D02*
X390905D01*
X377034Y637471D02*
X390905D01*
X377601Y636904D02*
X390905D01*
X378168Y636337D02*
X390905D01*
X378735Y635770D02*
X390905D01*
X379301Y635203D02*
X390905D01*
X379868Y634636D02*
X390905D01*
X380435Y634070D02*
X390905D01*
X381002Y633503D02*
X390905D01*
X381569Y632936D02*
X390905D01*
X382136Y632369D02*
X390905D01*
X382703Y631802D02*
X390905D01*
X383270Y631235D02*
X390905D01*
X383837Y630668D02*
X390905D01*
X384404Y630101D02*
X390905D01*
X384971Y629534D02*
X390905D01*
X385538Y628967D02*
X390905D01*
X386105Y628400D02*
X390905D01*
X386672Y627833D02*
X390905D01*
X387146Y627266D02*
X390905D01*
X387292Y626699D02*
X390905D01*
X387293Y626133D02*
X390905D01*
X387293Y625566D02*
X390905D01*
X387293Y624999D02*
X390905D01*
X387293Y624432D02*
X390905D01*
X387293Y623865D02*
X390905D01*
X387293Y623298D02*
X390905D01*
X387293Y622731D02*
X390905D01*
X387493Y622164D02*
X390905D01*
X387641Y621597D02*
X390905D01*
X387593Y621030D02*
X390905D01*
X387327Y620463D02*
X390905D01*
X386626Y619896D02*
X390905D01*
X346978Y619329D02*
X390905D01*
X346978Y618762D02*
X390905D01*
X346978Y618196D02*
X390905D01*
X346978Y617629D02*
X390905D01*
X346978Y617062D02*
X390905D01*
X346978Y616495D02*
X390905D01*
X346978Y615928D02*
X390905D01*
X346978Y615361D02*
X390905D01*
X346978Y614794D02*
X390905D01*
X346978Y614227D02*
X390905D01*
X346978Y613660D02*
X390905D01*
X346978Y613093D02*
X390905D01*
X346978Y612526D02*
X390905D01*
X346978Y611959D02*
X390905D01*
X346978Y611392D02*
X390905D01*
X346978Y610825D02*
X390905D01*
X375498Y610259D02*
X390905D01*
X376381Y609692D02*
X390905D01*
X376755Y609125D02*
X390905D01*
X376918Y608558D02*
X390905D01*
X376920Y607991D02*
X390905D01*
X376761Y607424D02*
X390905D01*
X376393Y606857D02*
X390905D01*
X375537Y606290D02*
X390905D01*
X374319Y605723D02*
X390905D01*
X374152Y605156D02*
X390905D01*
X373773Y604589D02*
X390905D01*
X381376Y604022D02*
X390905D01*
X381834Y603455D02*
X390905D01*
X382048Y602888D02*
X390905D01*
X382093Y602322D02*
X390905D01*
X381981Y601755D02*
X390905D01*
X381680Y601188D02*
X390905D01*
X381039Y600621D02*
X390905D01*
X379532Y600054D02*
X390905D01*
X379413Y599487D02*
X390905D01*
X379103Y598920D02*
X390905D01*
X378438Y598353D02*
X390905D01*
X363249Y597786D02*
X390905D01*
X362682Y597219D02*
X390905D01*
X362115Y596652D02*
X390905D01*
X361548Y596085D02*
X390905D01*
X360981Y595518D02*
X390905D01*
X360414Y594951D02*
X390905D01*
X359847Y594385D02*
X390905D01*
X359280Y593818D02*
X390905D01*
X358713Y593251D02*
X390905D01*
X358146Y592684D02*
X390905D01*
X357654Y592117D02*
X390905D01*
X357647Y591550D02*
X390905D01*
X381018Y590983D02*
X390905D01*
X381649Y590416D02*
X390905D01*
X381945Y589849D02*
X390905D01*
X382113Y589282D02*
X390905D01*
X383879Y588715D02*
X390905D01*
X384366Y588148D02*
X390905D01*
X384596Y587581D02*
X390905D01*
X384654Y587014D02*
X390905D01*
X384555Y586448D02*
X390905D01*
X384273Y585881D02*
X390905D01*
X383677Y585314D02*
X390905D01*
X369147Y584747D02*
X390905D01*
X368580Y584180D02*
X390905D01*
X368013Y583613D02*
X390905D01*
X367446Y583046D02*
X390905D01*
X366879Y582479D02*
X390905D01*
X366312Y581912D02*
X390905D01*
X365745Y581345D02*
X390905D01*
X365178Y580778D02*
X390905D01*
X364611Y580211D02*
X390905D01*
X364044Y579644D02*
X390905D01*
X363477Y579077D02*
X390905D01*
X362910Y578510D02*
X390905D01*
X362343Y577944D02*
X390905D01*
X361777Y577377D02*
X390905D01*
X361210Y576810D02*
X390905D01*
X360669Y576243D02*
X390905D01*
X360639Y575676D02*
X390905D01*
X360639Y575109D02*
X390905D01*
X360639Y574542D02*
X390905D01*
X360639Y573975D02*
X390905D01*
X360639Y573408D02*
X390905D01*
X360639Y572841D02*
X390905D01*
X360639Y572274D02*
X390905D01*
X360639Y571707D02*
X390905D01*
X360639Y571140D02*
X390905D01*
X360639Y570573D02*
X390905D01*
X360639Y570007D02*
X390905D01*
X360639Y569440D02*
X390905D01*
X360639Y568873D02*
X390905D01*
X360639Y568306D02*
X390905D01*
X360639Y567739D02*
X390905D01*
X360639Y567172D02*
X390905D01*
X360639Y566605D02*
X390905D01*
X360639Y566038D02*
X390905D01*
X360639Y565471D02*
X390905D01*
X360639Y564904D02*
X390905D01*
X360639Y564337D02*
X390905D01*
X360639Y563770D02*
X390905D01*
X360639Y563203D02*
X390905D01*
X360639Y562636D02*
X390905D01*
X360639Y562070D02*
X390905D01*
X360639Y561503D02*
X390905D01*
X362482Y560936D02*
X390905D01*
X363381Y560369D02*
X390905D01*
X363760Y559802D02*
X390905D01*
X363925Y559235D02*
X390905D01*
X363929Y558668D02*
X390905D01*
X363773Y558101D02*
X390905D01*
X363408Y557534D02*
X390905D01*
X363198Y556967D02*
X390905D01*
X363198Y556400D02*
X390905D01*
X363198Y555833D02*
X390905D01*
X363198Y555266D02*
X390905D01*
X363198Y554699D02*
X390905D01*
X363198Y554133D02*
X390905D01*
X388602Y553566D02*
X390905D01*
X389207Y552999D02*
X390905D01*
X389469Y552432D02*
X390905D01*
X389536Y551865D02*
X390905D01*
X389429Y551298D02*
X390905D01*
X389111Y550731D02*
X390905D01*
X388339Y550164D02*
X390905D01*
X379763Y549597D02*
X390905D01*
X379655Y549030D02*
X390905D01*
X346990Y673188D02*
X390893D01*
X346978Y619896D02*
X385264D01*
X346978Y625566D02*
X384597D01*
X346978Y624999D02*
X384597D01*
X346978Y624432D02*
X384597D01*
X346978Y623865D02*
X384597D01*
X346978Y623298D02*
X384597D01*
X346978Y622731D02*
X384597D01*
X346978Y620463D02*
X384562D01*
X346978Y626133D02*
X384548D01*
X346978Y622164D02*
X384396D01*
X346978Y621030D02*
X384297D01*
X346978Y621597D02*
X384248D01*
X346978Y626699D02*
X383993D01*
X346978Y627266D02*
X383426D01*
X346978Y627833D02*
X382859D01*
X346978Y628400D02*
X382292D01*
X376988Y650510D02*
X382287D01*
X377290Y643140D02*
X382164D01*
X378122Y649944D02*
X381928D01*
X378263Y643707D02*
X381914D01*
X378749Y649377D02*
X381912D01*
X379169Y648810D02*
X381912D01*
X379455Y648243D02*
X381912D01*
X379636Y647676D02*
X381912D01*
X379727Y647109D02*
X381912D01*
X379735Y646542D02*
X381912D01*
X379660Y645975D02*
X381912D01*
X379497Y645408D02*
X381912D01*
X379233Y644841D02*
X381912D01*
X378842Y644274D02*
X381912D01*
X346978Y628967D02*
X381725D01*
X369714Y585314D02*
X381441D01*
X346978Y629534D02*
X381158D01*
X346978Y630101D02*
X380591D01*
X346978Y630668D02*
X380024D01*
X346978Y631235D02*
X379457D01*
X357647Y590983D02*
X378903D01*
X346978Y631802D02*
X378890D01*
X373399Y604022D02*
X378624D01*
X363198Y553566D02*
X378446D01*
X346978Y632369D02*
X378323D01*
X363198Y552999D02*
X377793D01*
X346978Y632936D02*
X377756D01*
X363198Y552432D02*
X377226D01*
X346978Y633503D02*
X377189D01*
X363198Y551865D02*
X376659D01*
X346978Y634070D02*
X376622D01*
X374262Y598353D02*
X376444D01*
X363198Y551298D02*
X376155D01*
X346978Y634636D02*
X376056D01*
X363198Y550731D02*
X375912D01*
X363198Y550164D02*
X375857D01*
X363198Y549597D02*
X375857D01*
X363198Y549030D02*
X375857D01*
X363198Y548463D02*
X375857D01*
X363198Y547896D02*
X375857D01*
X363198Y547329D02*
X375857D01*
X363198Y546762D02*
X375857D01*
X363198Y546196D02*
X375857D01*
X363198Y545629D02*
X375857D01*
X363198Y545062D02*
X375857D01*
X363198Y544495D02*
X375857D01*
X363198Y543928D02*
X375857D01*
X363198Y543361D02*
X375857D01*
X363198Y542794D02*
X375857D01*
X363198Y542227D02*
X375857D01*
X363198Y541660D02*
X375857D01*
X363198Y541093D02*
X375857D01*
X363198Y540526D02*
X375857D01*
X363198Y539959D02*
X375857D01*
X363198Y539392D02*
X375857D01*
X363198Y538825D02*
X375857D01*
X363198Y538259D02*
X375857D01*
X363198Y537692D02*
X375857D01*
X363198Y537125D02*
X375857D01*
X363198Y536558D02*
X375857D01*
X363198Y535991D02*
X375857D01*
X363198Y535424D02*
X375857D01*
X363198Y534857D02*
X375857D01*
X363198Y534290D02*
X375857D01*
X363198Y533723D02*
X375857D01*
X363198Y533156D02*
X375826D01*
X346978Y635203D02*
X375489D01*
X346978Y635770D02*
X374922D01*
X366988Y650510D02*
X374666D01*
X371364Y643140D02*
X374363D01*
X346978Y636337D02*
X374355D01*
X346978Y610259D02*
X374187D01*
X346978Y636904D02*
X373788D01*
X368122Y649944D02*
X373532D01*
X363372Y532589D02*
X373494D01*
X370798Y643707D02*
X373390D01*
X346978Y609692D02*
X373302D01*
X346978Y637471D02*
X373221D01*
X368749Y649377D02*
X372904D01*
X370231Y644274D02*
X372812D01*
X346978Y638038D02*
X372654D01*
X369169Y648810D02*
X372484D01*
X369664Y644841D02*
X372421D01*
X369455Y648243D02*
X372199D01*
X369497Y645408D02*
X372157D01*
X346978Y638605D02*
X372087D01*
X369636Y647676D02*
X372018D01*
X369660Y645975D02*
X371994D01*
X369727Y647109D02*
X371926D01*
X369735Y646542D02*
X371919D01*
X346978Y639172D02*
X371520D01*
X346978Y639739D02*
X370953D01*
X346978Y640306D02*
X370386D01*
X346978Y640873D02*
X369819D01*
X346978Y641440D02*
X369252D01*
X357647Y590416D02*
X369071D01*
X346978Y642007D02*
X368685D01*
X357647Y589849D02*
X368363D01*
X346978Y642573D02*
X368118D01*
X357647Y589282D02*
X367796D01*
X367290Y643140D02*
X367512D01*
X357647Y588715D02*
X367229D01*
X357647Y588148D02*
X366662D01*
X357647Y587581D02*
X366095D01*
X357647Y587014D02*
X365528D01*
X357647Y586448D02*
X364961D01*
X356988Y650510D02*
X364666D01*
X357647Y585881D02*
X364394D01*
X357290Y643140D02*
X364363D01*
X357647Y585314D02*
X363827D01*
X358122Y649944D02*
X363532D01*
X358263Y643707D02*
X363390D01*
X357647Y584747D02*
X363260D01*
X358749Y649377D02*
X362904D01*
X358842Y644274D02*
X362812D01*
X357647Y584180D02*
X362693D01*
X359169Y648810D02*
X362484D01*
X346978Y609125D02*
X362481D01*
X359233Y644841D02*
X362421D01*
X359455Y648243D02*
X362199D01*
X359497Y645408D02*
X362157D01*
X357647Y583613D02*
X362126D01*
X359636Y647676D02*
X362018D01*
X359660Y645975D02*
X361994D01*
X359727Y647109D02*
X361926D01*
X359735Y646542D02*
X361919D01*
X346978Y608558D02*
X361914D01*
X357647Y583046D02*
X361560D01*
X346978Y607991D02*
X361347D01*
X360750Y560936D02*
X361219D01*
X357647Y582479D02*
X360993D01*
X346978Y607424D02*
X360780D01*
X357647Y581912D02*
X360426D01*
X346978Y606857D02*
X360213D01*
X357647Y581345D02*
X359859D01*
X346978Y606290D02*
X359646D01*
X357647Y580778D02*
X359292D01*
X346978Y605723D02*
X359079D01*
X357647Y580211D02*
X358725D01*
X346978Y605156D02*
X358512D01*
X357770Y579644D02*
X358154D01*
X346978Y604589D02*
X357945D01*
X346978Y604022D02*
X357378D01*
X346978Y603455D02*
X356812D01*
X346978Y602888D02*
X356245D01*
X346978Y602322D02*
X355678D01*
X346978Y601755D02*
X355111D01*
X346978Y650510D02*
X354666D01*
X346978Y601188D02*
X354544D01*
X346978Y643140D02*
X354363D01*
X346978Y600621D02*
X353977D01*
X346978Y649944D02*
X353532D01*
X346978Y600054D02*
X353410D01*
X346978Y643707D02*
X353390D01*
X346978Y649377D02*
X352904D01*
X346978Y599487D02*
X352843D01*
X346978Y644274D02*
X352812D01*
X346978Y648810D02*
X352484D01*
X346978Y644841D02*
X352421D01*
X346978Y598920D02*
X352276D01*
X346978Y648243D02*
X352199D01*
X346978Y645408D02*
X352157D01*
X346978Y647676D02*
X352018D01*
X346978Y645975D02*
X351994D01*
X346978Y647109D02*
X351926D01*
X346978Y646542D02*
X351919D01*
X346978Y598353D02*
X351709D01*
X346978Y597786D02*
X351142D01*
X346978Y597219D02*
X350575D01*
X346978Y596652D02*
X350008D01*
X346978Y596085D02*
X349441D01*
X346978Y595518D02*
X348875D01*
X346978Y594951D02*
X348308D01*
X346978Y594385D02*
X347745D01*
X379881Y543928D02*
X390905D01*
X379655Y543361D02*
X390905D01*
X379655Y542794D02*
X390905D01*
X379655Y542227D02*
X390905D01*
X379655Y541660D02*
X390905D01*
X379655Y541093D02*
X390905D01*
X379655Y540526D02*
X390905D01*
X379655Y539959D02*
X390905D01*
X379655Y539392D02*
X390905D01*
X379655Y538825D02*
X390905D01*
X379655Y538259D02*
X390905D01*
X379655Y537692D02*
X390905D01*
X379655Y537125D02*
X390905D01*
X379655Y536558D02*
X390905D01*
X379655Y535991D02*
X390905D01*
X379655Y535424D02*
X390905D01*
X379655Y534857D02*
X390905D01*
X379655Y534290D02*
X390905D01*
X379655Y533723D02*
X390905D01*
X379655Y533156D02*
X390905D01*
X379655Y532589D02*
X390905D01*
X379655Y532022D02*
X390905D01*
X379655Y531455D02*
X390905D01*
X379655Y530888D02*
X390905D01*
X379655Y530322D02*
X390905D01*
X379655Y529755D02*
X390905D01*
X379655Y529188D02*
X390905D01*
X379655Y528621D02*
X390905D01*
X379655Y528054D02*
X390905D01*
X379655Y527487D02*
X390905D01*
X379655Y526920D02*
X390905D01*
X379655Y526353D02*
X390905D01*
X379655Y525786D02*
X390905D01*
X379655Y525219D02*
X390905D01*
X379655Y524652D02*
X390905D01*
X379655Y524085D02*
X390905D01*
X379655Y523518D02*
X390905D01*
X379655Y522951D02*
X390905D01*
X379555Y522385D02*
X390905D01*
X379248Y521818D02*
X390905D01*
X378700Y521251D02*
X390905D01*
X378133Y520684D02*
X390905D01*
X377566Y520117D02*
X390905D01*
X377000Y519550D02*
X390905D01*
X376433Y518983D02*
X390905D01*
X375866Y518416D02*
X390905D01*
X375299Y517849D02*
X390905D01*
X374732Y517282D02*
X390905D01*
X374397Y516715D02*
X390905D01*
X373808Y516148D02*
X390905D01*
X360853Y515581D02*
X390905D01*
X361420Y515014D02*
X390905D01*
X361987Y514448D02*
X390905D01*
X362554Y513881D02*
X390905D01*
X363121Y513314D02*
X390905D01*
X363688Y512747D02*
X390905D01*
X364254Y512180D02*
X390905D01*
X364821Y511613D02*
X390905D01*
X365388Y511046D02*
X390905D01*
X365955Y510479D02*
X390905D01*
X366522Y509912D02*
X390905D01*
X367089Y509345D02*
X390905D01*
X367656Y508778D02*
X390905D01*
X368223Y508211D02*
X390905D01*
X368790Y507644D02*
X390905D01*
X369357Y507077D02*
X390905D01*
X369924Y506510D02*
X390905D01*
X370491Y505944D02*
X390905D01*
X371058Y505377D02*
X390905D01*
X371625Y504810D02*
X390905D01*
X372191Y504243D02*
X390905D01*
X372758Y503676D02*
X390905D01*
X373325Y503109D02*
X390905D01*
X373892Y502542D02*
X390905D01*
X374459Y501975D02*
X390905D01*
X375026Y501408D02*
X390905D01*
X375593Y500841D02*
X390905D01*
X376160Y500274D02*
X390905D01*
X376727Y499707D02*
X390905D01*
X377294Y499140D02*
X390905D01*
X377861Y498573D02*
X390905D01*
X378428Y498007D02*
X390905D01*
X378995Y497440D02*
X390905D01*
X379562Y496873D02*
X390905D01*
X380129Y496306D02*
X390905D01*
X380695Y495739D02*
X390905D01*
X381262Y495172D02*
X390905D01*
X381829Y494605D02*
X390905D01*
X382396Y494038D02*
X390905D01*
X382963Y493471D02*
X390905D01*
X383530Y492904D02*
X390905D01*
X384097Y492337D02*
X390905D01*
X384664Y491770D02*
X390905D01*
X385096Y491203D02*
X390905D01*
X385206Y490636D02*
X390905D01*
X385206Y490070D02*
X390905D01*
X385206Y489503D02*
X390905D01*
X385206Y488936D02*
X390905D01*
X385206Y488369D02*
X390905D01*
X385206Y487802D02*
X390905D01*
X385206Y487235D02*
X390905D01*
X385206Y486668D02*
X390905D01*
X385206Y486101D02*
X390905D01*
X385206Y485534D02*
X390905D01*
X385206Y484967D02*
X390905D01*
X385206Y484400D02*
X390905D01*
X385206Y483833D02*
X390905D01*
X385206Y483266D02*
X390905D01*
X385206Y482699D02*
X390905D01*
X385206Y482133D02*
X390905D01*
X385206Y481566D02*
X390905D01*
X385206Y480999D02*
X390905D01*
X385206Y480432D02*
X390905D01*
X385206Y479865D02*
X390905D01*
X385206Y479298D02*
X390905D01*
X385206Y478731D02*
X390905D01*
X385206Y478164D02*
X390905D01*
X385206Y477597D02*
X390905D01*
X385206Y477030D02*
X390905D01*
X385206Y476463D02*
X390905D01*
X385206Y475896D02*
X390905D01*
X385206Y475329D02*
X390905D01*
X385206Y474762D02*
X390905D01*
X385206Y474196D02*
X390905D01*
X385206Y473629D02*
X390905D01*
X385206Y473062D02*
X390905D01*
X385206Y472495D02*
X390905D01*
X385206Y471928D02*
X390905D01*
X385206Y471361D02*
X390905D01*
X385206Y470794D02*
X390905D01*
X385206Y470227D02*
X390905D01*
X385206Y469660D02*
X390905D01*
X385206Y469093D02*
X390905D01*
X385206Y468526D02*
X390905D01*
X385206Y467959D02*
X390905D01*
X385206Y467392D02*
X390905D01*
X385206Y466825D02*
X390905D01*
X385206Y466259D02*
X390905D01*
X385206Y465692D02*
X390905D01*
X385206Y465125D02*
X390905D01*
X385206Y464558D02*
X390905D01*
X385206Y463991D02*
X390905D01*
X385206Y463424D02*
X390905D01*
X385303Y462857D02*
X390905D01*
X385726Y462290D02*
X390905D01*
X385919Y461723D02*
X390905D01*
X385946Y461156D02*
X390905D01*
X385816Y460589D02*
X390905D01*
X385490Y460022D02*
X390905D01*
X384779Y459455D02*
X390905D01*
X382017Y458888D02*
X390905D01*
X382017Y458322D02*
X390905D01*
X382017Y457755D02*
X390905D01*
X382017Y457188D02*
X390905D01*
X382017Y456621D02*
X390905D01*
X382017Y456054D02*
X390905D01*
X382017Y455487D02*
X390905D01*
X382017Y454920D02*
X390905D01*
X382017Y454353D02*
X390905D01*
X382017Y453786D02*
X390905D01*
X382017Y453219D02*
X390905D01*
X382017Y452652D02*
X390905D01*
X382017Y452085D02*
X390905D01*
X382055Y451518D02*
X390905D01*
X382495Y450951D02*
X390905D01*
X382714Y450385D02*
X390905D01*
X382763Y449818D02*
X390905D01*
X382655Y449251D02*
X390905D01*
X382361Y448684D02*
X390905D01*
X381736Y448117D02*
X390905D01*
X378592Y447550D02*
X390905D01*
X378665Y446983D02*
X390905D01*
X378654Y446416D02*
X390905D01*
X378559Y445849D02*
X390905D01*
X378373Y445282D02*
X390905D01*
X378079Y444715D02*
X390905D01*
X377645Y444148D02*
X390905D01*
X376990Y443581D02*
X390905D01*
X375721Y443014D02*
X390905D01*
X346978Y442448D02*
X390905D01*
X346978Y441881D02*
X390905D01*
X346978Y441314D02*
X390905D01*
X346978Y440747D02*
X390905D01*
X346978Y440180D02*
X390905D01*
X346978Y439613D02*
X390905D01*
X347181Y439046D02*
X390703D01*
X390505Y544495D02*
X390676D01*
X380448D02*
X389259D01*
X382017Y459455D02*
X382938D01*
X378429Y448117D02*
X379603D01*
X376717Y489503D02*
X379321D01*
X377478Y488936D02*
X379321D01*
X377965Y488369D02*
X379321D01*
X378296Y487802D02*
X379321D01*
X378513Y487235D02*
X379321D01*
X378635Y486668D02*
X379321D01*
X378671Y486101D02*
X379321D01*
X378623Y485534D02*
X379321D01*
X378488Y484967D02*
X379321D01*
X378257Y484400D02*
X379321D01*
X377906Y483833D02*
X379321D01*
X377390Y483266D02*
X379321D01*
X376567Y482699D02*
X379321D01*
X375909Y482133D02*
X379321D01*
X376824Y481566D02*
X379321D01*
X377542Y480999D02*
X379321D01*
X378009Y480432D02*
X379321D01*
X378326Y479865D02*
X379321D01*
X378531Y479298D02*
X379321D01*
X378643Y478731D02*
X379321D01*
X378669Y478164D02*
X379321D01*
X378612Y477597D02*
X379321D01*
X378468Y477030D02*
X379321D01*
X378224Y476463D02*
X379321D01*
X377859Y475896D02*
X379321D01*
X377318Y475329D02*
X379321D01*
X376438Y474762D02*
X379321D01*
X375931Y474196D02*
X379321D01*
X376923Y473629D02*
X379321D01*
X377603Y473062D02*
X379321D01*
X378050Y472495D02*
X379321D01*
X378354Y471928D02*
X379321D01*
X378548Y471361D02*
X379321D01*
X378650Y470794D02*
X379321D01*
X378667Y470227D02*
X379321D01*
X378601Y469660D02*
X379321D01*
X378446Y469093D02*
X379321D01*
X378190Y468526D02*
X379321D01*
X377809Y467959D02*
X379321D01*
X377243Y467392D02*
X379321D01*
X376295Y466825D02*
X379321D01*
X375971Y466259D02*
X379321D01*
X377016Y465692D02*
X379321D01*
X377662Y465125D02*
X379321D01*
X378090Y464558D02*
X379321D01*
X378380Y463991D02*
X379321D01*
X378564Y463424D02*
X379321D01*
X378656Y462857D02*
X379321D01*
X378664Y462290D02*
X379321D01*
X378588Y461723D02*
X379321D01*
X378423Y461156D02*
X379321D01*
X378155Y460589D02*
X379321D01*
X377757Y460022D02*
X379321D01*
X377163Y459455D02*
X379321D01*
X376135Y458888D02*
X379321D01*
X376039Y458322D02*
X379321D01*
X377104Y457755D02*
X379321D01*
X377718Y457188D02*
X379321D01*
X378129Y456621D02*
X379321D01*
X378405Y456054D02*
X379321D01*
X378578Y455487D02*
X379321D01*
X378661Y454920D02*
X379321D01*
X378660Y454353D02*
X379321D01*
X378574Y453786D02*
X379321D01*
X378398Y453219D02*
X379321D01*
X378118Y452652D02*
X379321D01*
X377702Y452085D02*
X379321D01*
X377079Y451518D02*
X379284D01*
X369616Y490070D02*
X379202D01*
X378165Y448684D02*
X378978D01*
X376015Y450951D02*
X378844D01*
X377772Y449251D02*
X378683D01*
X369616Y490636D02*
X378635D01*
X376184Y450385D02*
X378625D01*
X377187Y449818D02*
X378576D01*
X369616Y491203D02*
X378068D01*
X369616Y491770D02*
X377501D01*
X369616Y492337D02*
X376934D01*
X369616Y492904D02*
X376367D01*
X360639Y528621D02*
X375857D01*
X360639Y528054D02*
X375857D01*
X360639Y527487D02*
X375857D01*
X360639Y526920D02*
X375857D01*
X360639Y526353D02*
X375857D01*
X360639Y525786D02*
X375857D01*
X360639Y525219D02*
X375857D01*
X360639Y524652D02*
X375857D01*
X360639Y524085D02*
X375857D01*
X369616Y493471D02*
X375801D01*
X373055Y523518D02*
X375596D01*
X369616Y494038D02*
X375234D01*
X374147Y522951D02*
X375029D01*
X369616Y494605D02*
X374667D01*
X369616Y495172D02*
X374100D01*
X346978Y443014D02*
X373885D01*
X360639Y529188D02*
X373763D01*
X369616Y482133D02*
X373697D01*
X346978Y450951D02*
X373591D01*
X346978Y458322D02*
X373567D01*
X369616Y495739D02*
X373533D01*
X346978Y458888D02*
X373471D01*
X346978Y450385D02*
X373422D01*
X369616Y482699D02*
X373040D01*
X369616Y496306D02*
X372966D01*
X369616Y489503D02*
X372889D01*
X369616Y481566D02*
X372782D01*
X346978Y443581D02*
X372617D01*
X346978Y451518D02*
X372527D01*
X346978Y457755D02*
X372502D01*
X346978Y459455D02*
X372443D01*
X346978Y449818D02*
X372420D01*
X369616Y496873D02*
X372399D01*
X369616Y483266D02*
X372216D01*
X360639Y523518D02*
X372199D01*
X369616Y488936D02*
X372129D01*
X369616Y480999D02*
X372064D01*
X346978Y444148D02*
X371961D01*
X346978Y452085D02*
X371904D01*
X346978Y457188D02*
X371888D01*
X346978Y460022D02*
X371850D01*
X346978Y449251D02*
X371834D01*
X369616Y497440D02*
X371832D01*
X369616Y483833D02*
X371700D01*
X369616Y488369D02*
X371641D01*
X369616Y480432D02*
X371597D01*
X360639Y516148D02*
X371547D01*
X346978Y444715D02*
X371527D01*
X346978Y452652D02*
X371489D01*
X346978Y456621D02*
X371478D01*
X346978Y460589D02*
X371452D01*
X346978Y448684D02*
X371441D01*
X369616Y484400D02*
X371350D01*
X369616Y487802D02*
X371310D01*
X369616Y479865D02*
X371281D01*
X370640Y476463D02*
X371279D01*
X369616Y498007D02*
X371265D01*
X346978Y445282D02*
X371234D01*
X346978Y463991D02*
X371221D01*
X346978Y453219D02*
X371208D01*
X346978Y456054D02*
X371201D01*
X346978Y461156D02*
X371184D01*
X346978Y448117D02*
X371177D01*
X360639Y522951D02*
X371172D01*
X370073Y477030D02*
X371139D01*
X369616Y484967D02*
X371118D01*
X369616Y487235D02*
X371093D01*
X369616Y479298D02*
X371075D01*
X346978Y445849D02*
X371047D01*
X346978Y463424D02*
X371043D01*
X346978Y453786D02*
X371032D01*
X346978Y455487D02*
X371028D01*
X346978Y461723D02*
X371018D01*
X346978Y447550D02*
X371015D01*
X369616Y477597D02*
X370994D01*
X369616Y485534D02*
X370983D01*
X369616Y486668D02*
X370971D01*
X369616Y478731D02*
X370963D01*
X360639Y516715D02*
X370957D01*
X346978Y446416D02*
X370952D01*
X346978Y462857D02*
X370950D01*
X346978Y454353D02*
X370947D01*
X346978Y454920D02*
X370945D01*
X346978Y462290D02*
X370942D01*
X346978Y446983D02*
X370941D01*
X369616Y478164D02*
X370937D01*
X369616Y486101D02*
X370936D01*
X346978Y464558D02*
X370859D01*
X360639Y522385D02*
X370798D01*
X360639Y520117D02*
X370778D01*
X360639Y519550D02*
X370778D01*
X360639Y518983D02*
X370778D01*
X360639Y520684D02*
X370729D01*
X369616Y498573D02*
X370698D01*
X360639Y517282D02*
X370678D01*
X360639Y518416D02*
X370642D01*
X360639Y521818D02*
X370612D01*
X360639Y521251D02*
X370591D01*
X360639Y517849D02*
X370582D01*
X346978Y465125D02*
X370292D01*
X369733Y499140D02*
X370129D01*
X346978Y465692D02*
X369725D01*
X346978Y466259D02*
X369158D01*
X346978Y466825D02*
X368591D01*
X346978Y467392D02*
X368024D01*
X346978Y467959D02*
X367457D01*
X346978Y468526D02*
X366890D01*
X346978Y469093D02*
X366323D01*
X346978Y469660D02*
X365756D01*
X346978Y470227D02*
X365189D01*
X346978Y470794D02*
X364622D01*
X346978Y471361D02*
X364056D01*
X346978Y471928D02*
X363489D01*
X346978Y472495D02*
X363013D01*
X346978Y473062D02*
X362865D01*
X346978Y498573D02*
X362865D01*
X346978Y498007D02*
X362865D01*
X346978Y497440D02*
X362865D01*
X346978Y496873D02*
X362865D01*
X346978Y496306D02*
X362865D01*
X346978Y495739D02*
X362865D01*
X346978Y495172D02*
X362865D01*
X346978Y494605D02*
X362865D01*
X346978Y494038D02*
X362865D01*
X346978Y493471D02*
X362865D01*
X346978Y492904D02*
X362865D01*
X346978Y492337D02*
X362865D01*
X346978Y491770D02*
X362865D01*
X346978Y491203D02*
X362865D01*
X346978Y490636D02*
X362865D01*
X346978Y490070D02*
X362865D01*
X346978Y489503D02*
X362865D01*
X346978Y488936D02*
X362865D01*
X346978Y488369D02*
X362865D01*
X346978Y487802D02*
X362865D01*
X346978Y487235D02*
X362865D01*
X346978Y486668D02*
X362865D01*
X346978Y486101D02*
X362865D01*
X346978Y485534D02*
X362865D01*
X346978Y484967D02*
X362865D01*
X346978Y484400D02*
X362865D01*
X346978Y483833D02*
X362865D01*
X346978Y483266D02*
X362865D01*
X346978Y482699D02*
X362865D01*
X346978Y482133D02*
X362865D01*
X346978Y481566D02*
X362865D01*
X346978Y480999D02*
X362865D01*
X346978Y480432D02*
X362865D01*
X346978Y479865D02*
X362865D01*
X346978Y479298D02*
X362865D01*
X346978Y478731D02*
X362865D01*
X346978Y478164D02*
X362865D01*
X346978Y477597D02*
X362865D01*
X346978Y477030D02*
X362865D01*
X346978Y476463D02*
X362865D01*
X346978Y475896D02*
X362865D01*
X346978Y475329D02*
X362865D01*
X346978Y474762D02*
X362865D01*
X346978Y474196D02*
X362865D01*
X346978Y473629D02*
X362865D01*
X346978Y499140D02*
X362804D01*
X360639Y529755D02*
X362518D01*
X346978Y499707D02*
X362243D01*
X360639Y530322D02*
X361827D01*
X346978Y500274D02*
X361676D01*
X360672Y530888D02*
X361260D01*
X346978Y500841D02*
X361109D01*
X346978Y501408D02*
X360542D01*
X346978Y501975D02*
X359975D01*
X346978Y502542D02*
X359408D01*
X346978Y503109D02*
X358841D01*
X346978Y503676D02*
X358274D01*
X346978Y504243D02*
X357707D01*
X346978Y504810D02*
X357141D01*
X346978Y505377D02*
X356574D01*
X346978Y505944D02*
X356007D01*
X346978Y506510D02*
X355440D01*
X346978Y507077D02*
X354873D01*
X346978Y507644D02*
X354306D01*
X346978Y508211D02*
X353751D01*
X346978Y508778D02*
X353484D01*
X346978Y536558D02*
X353455D01*
X346978Y535991D02*
X353455D01*
X346978Y535424D02*
X353455D01*
X346978Y534857D02*
X353455D01*
X346978Y534290D02*
X353455D01*
X346978Y533723D02*
X353455D01*
X346978Y533156D02*
X353455D01*
X346978Y532589D02*
X353455D01*
X346978Y532022D02*
X353455D01*
X346978Y531455D02*
X353455D01*
X346978Y530888D02*
X353455D01*
X346978Y530322D02*
X353455D01*
X346978Y529755D02*
X353455D01*
X346978Y529188D02*
X353455D01*
X346978Y528621D02*
X353455D01*
X346978Y528054D02*
X353455D01*
X346978Y527487D02*
X353455D01*
X346978Y526920D02*
X353455D01*
X346978Y526353D02*
X353455D01*
X346978Y525786D02*
X353455D01*
X346978Y525219D02*
X353455D01*
X346978Y524652D02*
X353455D01*
X346978Y524085D02*
X353455D01*
X346978Y523518D02*
X353455D01*
X346978Y522951D02*
X353455D01*
X346978Y522385D02*
X353455D01*
X346978Y521818D02*
X353455D01*
X346978Y521251D02*
X353455D01*
X346978Y520684D02*
X353455D01*
X346978Y520117D02*
X353455D01*
X346978Y519550D02*
X353455D01*
X346978Y518983D02*
X353455D01*
X346978Y518416D02*
X353455D01*
X346978Y517849D02*
X353455D01*
X346978Y517282D02*
X353455D01*
X346978Y516715D02*
X353455D01*
X346978Y516148D02*
X353455D01*
X346978Y515581D02*
X353455D01*
X346978Y515014D02*
X353455D01*
X346978Y514448D02*
X353455D01*
X346978Y513881D02*
X353455D01*
X346978Y513314D02*
X353455D01*
X346978Y512747D02*
X353455D01*
X346978Y512180D02*
X353455D01*
X346978Y511613D02*
X353455D01*
X346978Y511046D02*
X353455D01*
X346978Y510479D02*
X353455D01*
X346978Y509912D02*
X353455D01*
X346978Y509345D02*
X353455D01*
X346978Y537125D02*
X351537D01*
X346978Y537692D02*
X350864D01*
X346978Y538259D02*
X350550D01*
X346978Y538825D02*
X350429D01*
X346978Y539392D02*
X350197D01*
X346978Y539959D02*
X349630D01*
X346978Y540526D02*
X349063D01*
X346978Y541093D02*
X348496D01*
X346978Y541660D02*
X347930D01*
X347137Y542227D02*
X347449D01*
G54D118*
X348444Y440491D03*
X358444D03*
X378444D03*
X388444D03*
X348444Y450491D03*
X358444D03*
X380669Y449921D03*
X388444Y450491D03*
X348444Y460491D03*
X358444D03*
X383858Y461339D03*
X388444Y460491D03*
X348444Y470491D03*
X358444D03*
X388444D03*
X348444Y480491D03*
X358444D03*
X388444D03*
X348444Y490491D03*
X358444D03*
X388444D03*
X348444Y500491D03*
X358444D03*
X388444D03*
X348444Y510491D03*
X368444D03*
X372677Y517913D03*
X388444Y510491D03*
X405157Y519528D03*
X348444Y520491D03*
X368444D03*
X372677Y521457D03*
X388444Y520491D03*
X348444Y530491D03*
X352520Y538976D03*
X374843Y530984D03*
X388386Y539173D03*
X388444Y530491D03*
X352441Y546024D03*
X352520Y542559D03*
X368189Y543189D03*
X368425Y546890D03*
X372835Y546811D03*
Y543071D03*
X389882Y546496D03*
X409882Y545866D03*
X580157Y544488D03*
X589488Y544567D03*
X361850Y558937D03*
X368307Y550512D03*
X372953Y550748D03*
X385866Y559291D03*
X397323Y552520D03*
X418976Y553465D03*
X414449Y559488D03*
X366732Y563504D03*
X584882Y561299D03*
X593898Y561417D03*
X389882Y579016D03*
X379961Y589173D03*
X382559Y587087D03*
X389882Y589370D03*
Y583858D03*
X405157Y589528D03*
X389882Y598583D03*
Y594646D03*
X348444Y600491D03*
X369803Y603819D03*
X372244Y606024D03*
X377441Y600197D03*
X374843Y608268D03*
X380000Y602441D03*
X387992Y600945D03*
X389882Y604449D03*
X348444Y610491D03*
X353307Y612717D03*
X389803Y616260D03*
Y610472D03*
X348444Y620491D03*
X378661Y622244D03*
X370157Y621496D03*
X389803Y625748D03*
Y621457D03*
X348444Y630491D03*
X381811Y639685D03*
X389803Y637087D03*
X348444Y640491D03*
X390157Y640197D03*
X348444Y650491D03*
X389921Y655079D03*
X348444Y660491D03*
X358444D03*
X368444D03*
X378444D03*
X388444D03*
X389921Y667913D03*
Y663937D03*
X348444Y670491D03*
X358444D03*
X368444D03*
X378444D03*
X389882Y671024D03*
G54D178*
X385827Y646772D03*
G54D179*
X375827D03*
X365827D03*
X355827D03*
G54D374*
X380669Y449921D02*
Y490509D01*
X357795Y513383*
X374803Y462520D02*
X364213Y473110D01*
Y499644*
X354803Y509054*
Y593320*
X383858Y461339D02*
Y490670D01*
X359291Y515237*
Y576798*
X374803Y470394D02*
X368268Y476929D01*
Y499362*
X356299Y511331*
Y592743*
X357795Y513383D02*
Y577375D01*
X369593Y589173*
X379961*
X352520Y538976D02*
X348761Y542735D01*
Y547480*
X374843Y530984D02*
X363071D01*
X361850Y532205*
Y558937*
X348761Y547480D02*
Y593498D01*
X363530Y608268*
X374843*
X352441Y546024D02*
Y593031D01*
X363228Y603819*
X369803*
X352520Y542559D02*
X350227Y544852D01*
Y592891*
X366772Y563465D02*
Y563504D01*
X366732D02*
Y578740D01*
X372323Y584331*
X389409*
X366732Y563504D02*
X366772D01*
X359291Y576798D02*
X368701Y586207D01*
X369423Y586929*
X382559*
Y587087*
X368701Y586207D02*
X369108Y586614D01*
X389409Y584331D02*
X389882Y583858D01*
Y589370*
X356299Y592743D02*
X363241Y599685D01*
X374055*
X374567Y600197*
X377441*
X354803Y593320D02*
X362664Y601181D01*
X371887*
X373147Y602441*
X380000*
X350227Y592891D02*
X363399Y606063D01*
X372244*
X389882Y594646D02*
Y598583D01*
X372244Y606024D02*
Y606063D01*
X389882Y604449D02*
X389843D01*
Y610472*
X389803*
Y616260D02*
Y621457D01*
X385945D02*
Y626654D01*
X365827Y646772*
X389803Y625748D02*
Y637087D01*
X390157Y640197D02*
Y654843D01*
X389921Y655079*
Y667913D02*
X389882Y667953D01*
Y671024*
X389921Y663937D02*
Y667913D01*
G54D517*
X374803Y446772D03*
Y454646D03*
Y462520D03*
Y470394D03*
Y478268D03*
Y486142D03*
G74*
X0Y0D02*
M02*
