*
*
G04 PADS 9.5 Build Number: 522968 generated Gerber (RS-274-X) file*
G04 PC Version=2.1*
*
%IN "AD-15-RFID_0928.pcb"*%
*
%MOIN*%
*
%FSLAX35Y35*%
*
*
*
*
G04 PC Standard Apertures*
*
*
G04 Thermal Relief Aperture macro.*
%AMTER*
1,1,$1,0,0*
1,0,$1-$2,0,0*
21,0,$3,$4,0,0,45*
21,0,$3,$4,0,0,135*
%
*
*
G04 Annular Aperture macro.*
%AMANN*
1,1,$1,0,0*
1,0,$2,0,0*
%
*
*
G04 Odd Aperture macro.*
%AMODD*
1,1,$1,0,0*
1,0,$1-0.005,0,0*
%
*
*
G04 PC Custom Aperture Macros*
*
*
*
*
*
*
G04 PC Aperture Table*
*
%ADD010C,0.001*%
%ADD011R,0.03X0.032*%
%ADD032C,0.03937*%
%ADD034C,0.01969*%
%ADD036C,0.01181*%
%ADD042R,0.05709X0.05118*%
%ADD058C,0.0315*%
%ADD060C,0.01575*%
%ADD061C,0.0063*%
%ADD101C,0.008*%
%ADD118C,0.02362*%
%ADD178R,0.06X0.06*%
%ADD179C,0.06*%
%ADD185R,0.01969X0.01969*%
%ADD246R,0.01181X0.04724*%
%ADD374C,0.00866*%
%ADD517C,0.05905*%
%ADD532O,0.013X0.06*%
%ADD533O,0.06X0.013*%
%ADD534R,0.11X0.11*%
%ADD535R,0.05709X0.05315*%
%ADD536R,0.05118X0.05906*%
%ADD549R,0.0374X0.03937*%
%ADD550C,0.0126*%
*
*
*
*
G04 PC Circuitry*
G04 Layer Name AD-15-RFID_0928.pcb - circuitry*
%LPD*%
*
*
G04 PC Custom Flashes*
G04 Layer Name AD-15-RFID_0928.pcb - flashes*
%LPD*%
*
*
G04 PC Circuitry*
G04 Layer Name AD-15-RFID_0928.pcb - circuitry*
%LPD*%
*
G54D10*
G01X346063Y438110D02*
X621654D01*
Y674331*
X346063*
Y438110*
X431693Y651693D02*
G75*
G03X431693I-4921J0D01*
G01X565551D02*
G03X565551I-4921J0D01*
G01X431693Y460748D02*
G03X431693I-4921J0D01*
G01X565551D02*
G03X565551I-4921J0D01*
G54D11*
G01X383150Y627323D03*
Y633223D03*
X356772Y626929D03*
Y632829D03*
G54D32*
X394567Y581654D03*
X405512Y564882D03*
X405118Y585354D03*
Y523543D03*
X405591Y539528D03*
G54D34*
X374488Y504094D02*
X374803D01*
Y486142*
X372677Y521457D02*
Y518346D01*
Y517913*
X374136Y512362D02*
X374488D01*
Y504094*
X368779Y527323D02*
X372520D01*
X364646D02*
X368583D01*
X368779*
X372638Y521496D02*
X372677Y521457D01*
X372520Y523346D02*
Y527323D01*
X372441Y521260D02*
Y523268D01*
X372520Y523346*
Y521181D02*
X372441Y521260D01*
X372480Y518543*
X372677Y518346*
X372520Y521181D02*
Y512362D01*
X374136*
X372520Y521181D02*
Y523346D01*
X405118Y523543D02*
X405197Y527717D01*
X402047D02*
Y531654D01*
X405197Y527717D02*
Y531654D01*
X356850Y535945D02*
Y533858D01*
Y530551*
X360079Y527323*
X364646*
X354764Y535945D02*
X356693Y537874D01*
X356850*
Y535945D02*
X354764D01*
X356850Y533858*
Y537874D02*
Y538516D01*
X357795Y539461*
X356850Y535945D02*
Y537874D01*
X388386Y539173D02*
Y539134D01*
X398898*
Y533071*
X402047Y531654*
Y535591D02*
Y539134D01*
X405197Y531654D02*
Y535591D01*
X402047Y539134D02*
Y546220D01*
X403031*
X402047Y539134D02*
X404616D01*
X404724Y539243*
Y539567*
X404843Y539685*
X405433*
X405591Y539528*
X385866Y559291D02*
X392087Y565512D01*
X398898*
X397323Y552520D02*
X401654D01*
X404803D02*
X407441D01*
X396772Y569449D02*
X398110Y568110D01*
X398898Y565512*
X396772Y569449D02*
X398232D01*
X398898Y570114*
X394567Y569449D02*
X396772D01*
X398898Y565512D02*
Y570114D01*
X405197Y569055D02*
Y572992D01*
X402047Y569055D02*
Y565512D01*
X404616*
X404921Y565206*
Y564843*
X404961Y564882*
X405512*
X402047Y565512D02*
Y558819D01*
X402638*
X398898Y570114D02*
X401775Y572992D01*
X402047*
Y576929*
X405197Y572992D02*
Y576929D01*
Y580866*
X405118Y585354D02*
X405197Y580866D01*
X348258Y592285D02*
Y538513D01*
X350827Y535945*
X354764*
X348258Y592285D02*
X362087Y606114D01*
Y616299*
Y620940*
Y621063*
Y620940D02*
X362283Y621137D01*
Y625748*
Y629685*
X355827Y646772D02*
X362283Y640315D01*
Y629685*
G54D36*
X374803Y446772D02*
X383858D01*
X374803Y454646D02*
X383858D01*
X374882Y645827D02*
X374882D01*
X372068Y481003D02*
X372715Y480356D01*
X372068Y475533D02*
X372715Y476180D01*
X377538Y475533D02*
X376891Y476180D01*
X377538Y481003D02*
X376891Y480356D01*
X382180Y643125D02*
X383705Y644650D01*
X382180Y650419D02*
X383705Y648893D01*
X389474Y650419D02*
X387948Y648893D01*
X389474Y643125D02*
X387948Y644650D01*
G54D42*
X374136Y512362D03*
X383502D03*
G54D58*
X405118Y523543D02*
X405157Y523504D01*
Y519528*
X412025Y551632D02*
G03X409882Y546457I5176J-5175D01*
G01Y545866D02*
Y546457D01*
X582419Y553167D02*
G03X580157Y547707I5461J-5460D01*
G01Y544488D02*
Y547707D01*
X591827Y553205D02*
G03X589488Y547559I5645J-5646D01*
G01Y544567D02*
Y547559D01*
X407441Y552520D02*
X409843Y554921D01*
Y562795*
X414449Y557165D02*
Y559488D01*
X412250Y551856D02*
G03X414449Y557165I-5310J5309D01*
G01X412025Y551632D02*
X412250Y551856D01*
X584882Y558937D02*
Y561299D01*
X582543Y553291D02*
G03X584882Y558937I-5645J5646D01*
G01X582419Y553167D02*
X582543Y553291D01*
X593898Y558129D02*
Y561417D01*
X591880Y553258D02*
G03X593898Y558129I-4871J4871D01*
G01X591827Y553205D02*
X591880Y553258D01*
X418976Y563346D02*
Y553465D01*
Y563346D02*
G03X417195Y567648I-6083J0D01*
G01X413780Y567795D02*
X417047D01*
X417195Y567648*
X413780Y567795D02*
G03X411696Y566932I-0J-2946D01*
G01X411457Y566693D02*
X411696Y566932D01*
X411457Y566693D02*
G03X409843Y562795I3898J-3898D01*
G01X405118Y585354D02*
Y589498D01*
X405148Y589528*
X405157*
G54D60*
X387638Y551929D03*
X385945Y621457D03*
G54D61*
X369742Y646772D02*
G03X369742I-3915J0D01*
G01X390905Y553300D02*
Y566270D01*
G03X390368Y566493I-314J0*
G01X384123Y560248*
G03X384030Y560025I222J-223*
G01Y555779*
G03X384345Y555464I315J0*
G01X385032*
X386596Y553826D02*
G03X385032Y555464I-1564J73D01*
G01X386596Y553826D02*
G03X387024Y553517I314J-15D01*
G01X389307Y552263D02*
G03X387024Y553517I-1669J-334D01*
G01X389307Y552263D02*
G03X389839Y552102I309J62D01*
G01X390813Y553077*
G03X390905Y553300I-222J223*
G01Y577907D02*
Y673101D01*
G03X390591Y673416I-314J-0*
G01X347293*
G03X346978Y673101I-0J-315*
G01Y594451*
G03X347516Y594229I315J0*
G01X360095Y606808*
G03X360187Y607031I-223J223*
G01Y612707*
G03X359872Y613022I-315J0*
G01X358937*
X358022Y613937D02*
G03X358937Y613022I915J0D01*
G01X358022Y613937D02*
Y618661D01*
X358081Y618984D02*
G03X358022Y618661I856J-323D01*
G01X358081Y618984D02*
G03X358101Y619094I-295J110D01*
G01Y623463*
G03X358009Y623686I-315J0*
G01X357372Y624322*
G03X357150Y624414I-222J-223*
G01X355272*
X354357Y625329D02*
G03X355272Y624414I915J0D01*
G01X354357Y625329D02*
Y628529D01*
X355272Y629444D02*
G03X354357Y628529I-0J-915D01*
G01X355272Y629444D02*
X358272D01*
X359187Y628529D02*
G03X358272Y629444I-915J0D01*
G01X359187Y628529D02*
Y626451D01*
G03X359279Y626228I315J0*
G01X359847Y625661*
G03X360384Y625883I222J222*
G01Y628701*
Y629685*
Y639398*
G03X360292Y639621I-315J-0*
G01X357032Y642880*
G03X356736Y642964I-222J-223*
G01X359635Y645862D02*
G03X356736Y642964I-3808J910D01*
G01X359635Y645862D02*
G03X359718Y645566I306J-73D01*
G01X363626Y641658*
X364183Y640315D02*
G03X363626Y641658I-1900J-0D01*
G01X364183Y640315D02*
Y630669D01*
Y629685*
Y628701*
Y626732*
Y625748*
Y624764*
Y623227*
G03X364720Y623005I315J0*
G01X367772Y626057*
G03X367865Y626279I-222J222*
G01Y627126*
X368780Y628041D02*
G03X367865Y627126I-0J-915D01*
G01X368780Y628041D02*
X370748D01*
X371663Y627126D02*
G03X370748Y628041I-915J-0D01*
G01X371663Y627126D02*
Y625157D01*
X370748Y624242D02*
G03X371663Y625157I0J915D01*
G01X370748Y624242D02*
X369901D01*
X369901D02*
G03X369679Y624150I0J-314D01*
G01X366086Y620557*
G03X365994Y620335I223J-222*
G01Y619264*
G03X366034Y619109I315J-0*
G01X366151Y618661D02*
G03X366034Y619109I-915J0D01*
G01X366151Y618661D02*
Y613937D01*
X365236Y613022D02*
G03X366151Y613937I0J915D01*
G01X365236Y613022D02*
X364301D01*
G03X363986Y612707I-0J-315*
G01Y606114*
X363430Y604771D02*
G03X363986Y606114I-1343J1343D01*
G01X363430Y604771D02*
X350250Y591591D01*
G03X350158Y591368I222J-223*
G01X350158D02*
Y547416D01*
X350158D02*
G03X350730Y547234I314J-0D01*
G01X353959Y547469D02*
G03X350730Y547234I-1518J-1445D01*
G01X353959Y547469D02*
G03X354187Y547371I228J217D01*
G01X355877*
G03X355882I-0J315*
G01X355929D02*
G03X355882I-23J-1347D01*
G01X355929D02*
G03X355934I5J315D01*
G01X356577*
G03X356888Y547738I0J315*
G01X357099Y548812D02*
G03X356888Y547738I1333J-820D01*
G01X357099Y548812D02*
G03Y549142I-268J165D01*
G01Y550781D02*
G03Y549142I1333J-820D01*
G01Y550781D02*
G03Y551111I-268J165D01*
G01Y552750D02*
G03Y551111I1333J-820D01*
G01Y552750D02*
G03Y553080I-268J165D01*
G01X358432Y555464D02*
G03X357099Y553080I0J-1565D01*
G01X358432Y555464D02*
X362961D01*
G03X363276Y555779I-0J315*
G01Y556797*
G03X362816Y557076I-315J-0*
G01X360396Y560447D02*
G03X362816Y557076I1454J-1510D01*
G01X360396Y560447D02*
G03X360493Y560674I-218J227D01*
G01Y587040*
X360888Y587993D02*
G03X360493Y587040I953J-953D01*
G01X360888Y587993D02*
X363205Y590310D01*
G03X363298Y590533I-222J223*
G01Y590698*
G03X362904Y591003I-315J0*
G01X362677Y590975D02*
G03X362904Y591003I0J915D01*
G01X362677Y590975D02*
X361496D01*
X360984Y591132D02*
G03X361496Y590975I512J758D01*
G01X360984Y591132D02*
G03X360631I-177J-261D01*
G01X360118Y590975D02*
G03X360631Y591132I0J915D01*
G01X360118Y590975D02*
X358937D01*
X358022Y591890D02*
G03X358937Y590975I915J-0D01*
G01X358022Y591890D02*
Y596614D01*
X358937Y597529D02*
G03X358022Y596614I0J-915D01*
G01X358937Y597529D02*
X360118D01*
X360631Y597372D02*
G03X360118Y597529I-513J-758D01*
G01X360631Y597372D02*
G03X360984I176J261D01*
G01X361496Y597529D02*
G03X360984Y597372I0J-915D01*
G01X361496Y597529D02*
X362677D01*
X363190Y597372D02*
G03X362677Y597529I-513J-758D01*
G01X363190Y597372D02*
G03X363543I176J261D01*
G01X364055Y597529D02*
G03X363543Y597372I0J-915D01*
G01X364055Y597529D02*
X365236D01*
X365749Y597372D02*
G03X365236Y597529I-513J-758D01*
G01X365749Y597372D02*
G03X366102I176J261D01*
G01X366614Y597529D02*
G03X366102Y597372I0J-915D01*
G01X366614Y597529D02*
X367795D01*
X368023Y597500D02*
G03X367795Y597529I-228J-886D01*
G01X368023Y597500D02*
G03X368416Y597806I78J306D01*
G01Y599444*
X368448Y599736D02*
G03X368416Y599444I1316J-292D01*
G01X368448Y599736D02*
G03X368455Y599804I-308J68D01*
G01Y602073*
G03X368357Y602301I-315J0*
G01X369837Y605915D02*
G03X368357Y602301I-34J-2096D01*
G01X369837Y605915D02*
G03X370156Y606203I5J315D01*
G01X372412Y608113D02*
G03X370156Y606203I-168J-2089D01*
G01X372412Y608113D02*
G03X372751Y608406I25J314D01*
G01X375656Y610200D02*
G03X372751Y608406I-813J-1932D01*
G01X375656Y610200D02*
G03X376093Y610490I122J290D01*
G01Y612746*
G03X375700Y613051I-315J-0*
G01X375472Y613022D02*
G03X375700Y613051I0J915D01*
G01X375472Y613022D02*
X374291D01*
X373779Y613179D02*
G03X374291Y613022I512J758D01*
G01X373779Y613179D02*
G03X373426I-177J-261D01*
G01X372913Y613022D02*
G03X373426Y613179I0J915D01*
G01X372913Y613022D02*
X371732D01*
X371220Y613179D02*
G03X371732Y613022I512J758D01*
G01X371220Y613179D02*
G03X370867I-177J-261D01*
G01X370354Y613022D02*
G03X370867Y613179I0J915D01*
G01X370354Y613022D02*
X369173D01*
X368258Y613937D02*
G03X369173Y613022I915J0D01*
G01X368258Y613937D02*
Y618661D01*
X369173Y619576D02*
G03X368258Y618661I0J-915D01*
G01X369173Y619576D02*
X370354D01*
X370867Y619419D02*
G03X370354Y619576I-513J-758D01*
G01X370867Y619419D02*
G03X371220I176J261D01*
G01X371732Y619576D02*
G03X371220Y619419I0J-915D01*
G01X371732Y619576D02*
X372913D01*
X373141Y619548D02*
G03X372913Y619576I-228J-887D01*
G01X373141Y619548D02*
G03X373534Y619853I78J305D01*
G01Y624132*
G03X373393Y624394I-315J-0*
G01X372983Y625157D02*
G03X373393Y624394I915J0D01*
G01X372983Y625157D02*
Y627126D01*
X373898Y628041D02*
G03X372983Y627126I-0J-915D01*
G01X373898Y628041D02*
X374164D01*
G03X374479Y628356I-0J315*
G01Y642882*
G03X374288Y643172I-315J0*
G01X377366D02*
G03X374288I-1539J3600D01*
G01X377366D02*
G03X377175Y642882I124J-290D01*
G01Y627205*
X376856Y626334D02*
G03X377175Y627205I-1029J871D01*
G01X376856Y626334D02*
G03X376781Y626130I240J-204D01*
G01Y625157*
X376371Y624394D02*
G03X376781Y625157I-505J763D01*
G01X376371Y624394D02*
G03X376230Y624132I174J-262D01*
G01Y619853*
G03X376623Y619548I315J-0*
G01X376850Y619576D02*
G03X376623Y619548I0J-915D01*
G01X376850Y619576D02*
X378031D01*
X378544Y619419D02*
G03X378031Y619576I-513J-758D01*
G01X378544Y619419D02*
G03X378897I176J261D01*
G01X379409Y619576D02*
G03X378897Y619419I0J-915D01*
G01X379409Y619576D02*
X380591D01*
X380818Y619548D02*
G03X380591Y619576I-227J-887D01*
G01X380818Y619548D02*
G03X381211Y619853I78J305D01*
G01Y624751*
G03X381089Y625000I-315J-0*
G01X380735Y625723D02*
G03X381089Y625000I915J-0D01*
G01X380735Y625723D02*
Y628923D01*
X381650Y629838D02*
G03X380735Y628923I-0J-915D01*
G01X381650Y629838D02*
X384650D01*
X385565Y628923D02*
G03X384650Y629838I-915J-0D01*
G01X385565Y628923D02*
Y625723D01*
X384650Y624808D02*
G03X385565Y625723I-0J915D01*
G01X384650Y624808D02*
X384222D01*
G03X383907Y624493I0J-315*
G01Y622506*
G03X384491Y622342I315J0*
G01X387348Y620493D02*
G03X384491Y622342I-1403J964D01*
G01X387348Y620493D02*
G03X387293Y620315I260J-178D01*
G01Y604641*
X386898Y603688D02*
G03X387293Y604641I-953J953D01*
G01X386898Y603688D02*
X381083Y597873D01*
G03X381475Y597385I222J-223*
G01X381969Y597529D02*
G03X381475Y597385I-0J-915D01*
G01X381969Y597529D02*
X383150D01*
X384065Y596614D02*
G03X383150Y597529I-915J0D01*
G01X384065Y596614D02*
Y591890D01*
X383947Y591442D02*
G03X384065Y591890I-797J448D01*
G01X383947Y591442D02*
G03X383907Y591288I275J-154D01*
G01Y588832*
G03X384005Y588604I315J0*
G01X380481Y586812D02*
G03X384005Y588604I2078J275D01*
G01X380481Y586812D02*
G03X380142Y587085I-312J-41D01*
G01X378311Y590466D02*
G03X380142Y587085I1650J-1293D01*
G01X378311Y590466D02*
G03X378055Y590975I-248J194D01*
G01X378031D02*
G03X378055I0J915D01*
G01X378031D02*
X376850D01*
X376338Y591132D02*
G03X376850Y590975I512J758D01*
G01X376338Y591132D02*
G03X375985I-177J-261D01*
G01X375472Y590975D02*
G03X375985Y591132I0J915D01*
G01X375472Y590975D02*
X374291D01*
X373779Y591132D02*
G03X374291Y590975I512J758D01*
G01X373779Y591132D02*
G03X373426I-177J-261D01*
G01X372913Y590975D02*
G03X373426Y591132I0J915D01*
G01X372913Y590975D02*
X371732D01*
X371220Y591132D02*
G03X371732Y590975I512J758D01*
G01X371220Y591132D02*
G03X370867I-177J-261D01*
G01X370354Y590975D02*
G03X370867Y591132I0J915D01*
G01X370354Y590975D02*
X369173D01*
X368946Y591003D02*
G03X369173Y590975I227J887D01*
G01X368946Y591003D02*
G03X368553Y590698I-78J-305D01*
G01Y589380*
X368158Y588426D02*
G03X368553Y589380I-953J954D01*
G01X368158Y588426D02*
X364747Y585016D01*
G03X364655Y584793I223J-223*
G01Y577864*
G03X364970Y577549I315J-0*
G01X370059*
X370582Y577385D02*
G03X370059Y577549I-523J-751D01*
G01X370582Y577385D02*
G03X371020Y577463I179J259D01*
G01X371165Y577639D02*
G03X371020Y577463I961J-946D01*
G01X371165Y577639D02*
X373187Y579693D01*
G03X373278Y579914I-224J221*
G01Y584114*
X374193Y585029D02*
G03X373278Y584114I-0J-915D01*
G01X374193Y585029D02*
X379902D01*
X380817Y584114D02*
G03X379902Y585029I-915J0D01*
G01X380817Y584114D02*
Y578799D01*
X379902Y577884D02*
G03X380817Y578799I-0J915D01*
G01X379902Y577884D02*
X375322D01*
G03X375098Y577790I0J-315*
G01X373565Y576233*
G03X373474Y576012I224J-221*
G01Y569468*
G03X373566Y569246I315J0*
G01X373734Y569078*
G03X373957Y568986I223J223*
G01X374291*
X375206Y568071D02*
G03X374291Y568986I-915J-0D01*
G01X375206Y568071D02*
Y566102D01*
X374291Y565187D02*
G03X375206Y566102I0J915D01*
G01X374291Y565187D02*
X373445D01*
G03X373222Y565095I-0J-315*
G01X372188Y564061*
G03X372096Y563839I223J-222*
G01Y562163*
G03X372462Y561852I315J-0*
G01X373536Y561641D02*
G03X372462Y561852I-819J-1333D01*
G01X373536Y561641D02*
G03X373866I165J268D01*
G01X376251Y560308D02*
G03X373866Y561641I-1565J-0D01*
G01X376251Y560308D02*
Y555608D01*
X373866Y554275D02*
G03X376251Y555608I820J1333D01*
G01X373866Y554275D02*
G03X373536I-165J-269D01*
G01X371897D02*
G03X373536I820J1333D01*
G01X371897D02*
G03X371567I-165J-269D01*
G01X369928D02*
G03X371567I820J1333D01*
G01X369928D02*
G03X369598I-165J-269D01*
G01X367959D02*
G03X369598I820J1333D01*
G01X367959D02*
G03X367629I-165J-269D01*
G01X365990D02*
G03X367629I820J1333D01*
G01X365990D02*
G03X365660I-165J-269D01*
G01X364978Y554049D02*
G03X365660Y554275I-137J1559D01*
G01X364978Y554049D02*
G03X364691Y553763I27J-314D01*
G01X364466Y553080D02*
G03X364691Y553763I-1334J819D01*
G01X364466Y553080D02*
G03Y552750I268J-165D01*
G01Y551111D02*
G03Y552750I-1334J819D01*
G01Y551111D02*
G03Y550781I268J-165D01*
G01Y549142D02*
G03Y550781I-1334J819D01*
G01Y549142D02*
G03Y548812I268J-165D01*
G01Y547173D02*
G03Y548812I-1334J819D01*
G01Y547173D02*
G03Y546843I268J-165D01*
G01Y545204D02*
G03Y546843I-1334J819D01*
G01Y545204D02*
G03Y544874I268J-165D01*
G01Y543235D02*
G03Y544874I-1334J819D01*
G01Y543235D02*
G03Y542905I268J-165D01*
G01Y541266D02*
G03Y542905I-1334J819D01*
G01Y541266D02*
G03Y540936I268J-165D01*
G01X363132Y538551D02*
G03X364466Y540936I0J1565D01*
G01X363132Y538551D02*
X359640D01*
G03X359378Y538411I0J-315*
G01X359138Y538118D02*
G03X359378Y538411I-1343J1343D01*
G01X359138Y538118D02*
X358842Y537821D01*
G03X358750Y537599I223J-222*
G01Y535945*
Y533858*
Y531468*
G03X358842Y531246I315J0*
G01X360773Y529314*
G03X360996Y529222I223J223*
G01X362914*
G03X363207Y529422I0J315*
G01X363553Y529951D02*
G03X363207Y529422I1093J-1093D01*
G01X363553Y529951D02*
X365173Y531570D01*
G03X365265Y531793I-223J223*
G01Y533434*
G03X365262Y533480I-315J-0*
G01X365245Y533708D02*
G03X365262Y533480I1565J-0D01*
G01X365245Y533708D02*
Y538408D01*
X367629Y539741D02*
G03X365245Y538408I-819J-1333D01*
G01X367629Y539741D02*
G03X367959I165J268D01*
G01X370344Y538408D02*
G03X367959Y539741I-1565J-0D01*
G01X370344Y538408D02*
Y533708D01*
X370327Y533480D02*
G03X370344Y533708I-1548J228D01*
G01X370327Y533480D02*
G03X370324Y533434I312J-46D01*
G01Y529537*
G03X370639Y529222I315J0*
G01X372520*
X372914*
G03X373166Y529726I0J315*
G01X373261Y532359D02*
G03X373166Y529726I1582J-1375D01*
G01X373261Y532359D02*
G03X373338Y532566I-238J207D01*
G01Y532831*
G03X373301Y532978I-315J0*
G01X373121Y533708D02*
G03X373301Y532978I1565J-0D01*
G01X373121Y533708D02*
Y538408D01*
X375505Y539741D02*
G03X373121Y538408I-819J-1333D01*
G01X375505Y539741D02*
G03X375835I165J268D01*
G01X377474D02*
G03X375835I-819J-1333D01*
G01X377474D02*
G03X377804I165J268D01*
G01X378487Y539967D02*
G03X377804Y539741I137J-1559D01*
G01X378487Y539967D02*
G03X378773Y540253I-27J314D01*
G01X380332Y541681D02*
G03X378773Y540253I0J-1565D01*
G01X380332Y541681D02*
X385032D01*
Y538551D02*
G03Y541681I0J1565D01*
G01Y538551D02*
X380504D01*
G03X380189Y538236I-0J-315*
G01Y533708*
X377804Y532375D02*
G03X380189Y533708I820J1333D01*
G01X377804Y532375D02*
G03X377474I-165J-269D01*
G01X377011Y532184D02*
G03X377474Y532375I-356J1524D01*
G01X377011Y532184D02*
G03X376790Y531761I71J-307D01*
G01X376927Y530768D02*
G03X376790Y531760I-2084J216D01*
G01X376927Y530768D02*
G03X376943Y530632I314J-33D01*
G01X377017Y530191D02*
G03X376943Y530632I-1348J-0D01*
G01X377017Y530191D02*
Y529333D01*
G03X377158Y529070I315J-0*
G01X377569Y528307D02*
G03X377158Y529070I-915J0D01*
G01X377569Y528307D02*
Y526339D01*
X376654Y525424D02*
G03X377569Y526339I-0J915D01*
G01X376654Y525424D02*
X374734D01*
G03X374419Y525109I-0J-315*
G01Y523346*
Y522715*
G03X374465Y522551I315J-0*
G01X374602Y520627D02*
G03X374465Y522551I-1925J830D01*
G01X374602Y520627D02*
G03X374576Y520503I289J-124D01*
G01X374576D02*
Y518868D01*
G03X374602Y518743I315J-0*
G01X374465Y516820D02*
G03X374602Y518743I-1788J1093D01*
G01X374465Y516820D02*
G03X374419Y516655I269J-165D01*
G01Y516151*
G03X374734Y515836I315J0*
G01X376990*
X377905Y514921D02*
G03X376990Y515836I-915J0D01*
G01X377905Y514921D02*
Y509803D01*
X376990Y508888D02*
G03X377905Y509803I0J915D01*
G01X376990Y508888D02*
X376702D01*
G03X376387Y508573I0J-315*
G01Y507244*
G03X376614Y506941I315J-0*
G01X377273Y506063D02*
G03X376614Y506941I-915J-0D01*
G01X377273Y506063D02*
Y502126D01*
X376849Y501353D02*
G03X377273Y502126I-491J773D01*
G01X376849Y501353D02*
G03X376702Y501088I168J-265D01*
G01Y489690*
G03X376851Y489423I315J0*
G01X376109Y482501D02*
G03X376851Y489423I-1306J3641D01*
G01X376109Y482501D02*
G03Y481908I107J-296D01*
G01Y474627D02*
G03Y481908I-1306J3641D01*
G01Y474627D02*
G03Y474034I107J-296D01*
G01Y466753D02*
G03Y474034I-1306J3641D01*
G01Y466753D02*
G03Y466160I107J-296D01*
G01Y458879D02*
G03Y466160I-1306J3641D01*
G01Y458879D02*
G03Y458286I107J-296D01*
G01X378285Y456329D02*
G03X376109Y458286I-3482J-1683D01*
G01X378285Y456329D02*
G03X378569Y456151I284J137D01*
G01X381693*
G03X381996Y456554I0J315*
G01X381959Y456811D02*
G03X381996Y456554I915J0D01*
G01X381959Y456811D02*
Y458780D01*
X382280Y459476D02*
G03X381959Y458780I594J-696D01*
G01X382280Y459476D02*
G03X382309Y459927I-204J239D01*
G01X385408D02*
G03X382309I-1550J1412D01*
G01X385408D02*
G03X385436Y459476I233J-212D01*
G01X385757Y458780D02*
G03X385436Y459476I-914J-0D01*
G01X385758Y458780D02*
Y456811D01*
X385645Y456372D02*
G03X385758Y456811I-802J439D01*
G01X385645Y456372D02*
G03Y456069I276J-152D01*
G01X385758Y455630D02*
G03X385645Y456069I-915J-0D01*
G01X385758Y455630D02*
Y453661D01*
X384843Y452746D02*
G03X385758Y453661I-0J915D01*
G01X384843Y452746D02*
X382874D01*
X382203Y453039D02*
G03X382874Y452746I671J622D01*
G01X382203Y453039D02*
G03X381972Y453140I-231J-214D01*
G01X378569*
G03X378285Y452962I-0J-315*
G01X376109Y451005D02*
G03X378285Y452962I-1306J3641D01*
G01X376109Y451005D02*
G03Y450412I107J-296D01*
G01X378285Y448455D02*
G03X376109Y450412I-3482J-1683D01*
G01X378285Y448455D02*
G03X378569Y448277I284J137D01*
G01X378658*
G03X378920Y448766I-0J315*
G01X381913Y451608D02*
G03X378920Y448766I-1244J-1687D01*
G01X381913Y451608D02*
G03X382298Y451617I187J254D01*
G01X382874Y451820D02*
G03X382298Y451617I0J-914D01*
G01X382874Y451820D02*
X384843D01*
X385758Y450906D02*
G03X384843Y451820I-915J-0D01*
G01X385758Y450906D02*
Y448937D01*
X385645Y448498D02*
G03X385758Y448937I-802J439D01*
G01X385645Y448498D02*
G03Y448195I276J-152D01*
G01X385758Y447756D02*
G03X385645Y448195I-915J-0D01*
G01X385758Y447756D02*
Y445787D01*
X384843Y444872D02*
G03X385758Y445787I-0J915D01*
G01X384843Y444872D02*
X382874D01*
X382203Y445165D02*
G03X382874Y444872I671J622D01*
G01X382203Y445165D02*
G03X381972Y445266I-231J-214D01*
G01X378569*
G03X378285Y445088I-0J-315*
G01X373497Y450412D02*
G03X378285Y445088I1306J-3640D01*
G01X373497Y450412D02*
G03Y451005I-106J297D01*
G01Y458286D02*
G03Y451005I1306J-3640D01*
G01Y458286D02*
G03Y458879I-106J297D01*
G01Y466160D02*
G03Y458879I1306J-3640D01*
G01Y466160D02*
G03Y466753I-106J297D01*
G01Y474034D02*
G03Y466753I1306J-3640D01*
G01Y474034D02*
G03Y474627I-106J297D01*
G01Y481908D02*
G03Y474627I1306J-3640D01*
G01Y481908D02*
G03Y482501I-106J297D01*
G01X372756Y489423D02*
G03X373497Y482501I2047J-3281D01*
G01X372756Y489423D02*
G03X372904Y489690I-167J267D01*
G01Y500896*
G03X372596Y501211I-315J0*
G01X371703Y502126D02*
G03X372596Y501211I915J-0D01*
G01X371703Y502126D02*
Y506063D01*
X372362Y506941D02*
G03X371703Y506063I256J-878D01*
G01X372362Y506941D02*
G03X372589Y507244I-88J303D01*
G01Y508573*
G03X372274Y508888I-315J0*
G01X371282*
X370367Y509803D02*
G03X371282Y508888I915J0D01*
G01X370367Y509803D02*
Y514921D01*
X370555Y515478D02*
G03X370367Y514921I727J-557D01*
G01X370555Y515478D02*
G03X370620Y515670I-250J192D01*
G01Y517479*
G03X370615Y517536I-315J0*
G01X370600Y518193D02*
G03X370615Y517536I2077J-280D01*
G01X370600Y518193D02*
G03Y518279I-312J42D01*
G01X370581Y518516D02*
G03X370600Y518279I1899J27D01*
G01X370581Y518516D02*
X370542Y521232D01*
Y521260D02*
G03Y521232I1899J-0D01*
G01Y521260D02*
Y523268D01*
X370609Y523770D02*
G03X370542Y523268I1832J-502D01*
G01X370609Y523770D02*
G03X370620Y523853I-304J83D01*
G01Y525109*
G03X370305Y525424I-315J-0*
G01X368779*
X368583*
X367598*
X364646*
X363661*
X360079*
X358736Y525980D02*
G03X360079Y525424I1343J1343D01*
G01X358736Y525980D02*
X355507Y529208D01*
X354951Y530551D02*
G03X355507Y529208I1899J0D01*
G01X354951Y530551D02*
Y532941D01*
G03X354859Y533164I-315J0*
G01X354069Y533953*
G03X353847Y534046I-222J-222*
G01X350827*
X349484Y534602D02*
G03X350827Y534046I1343J1343D01*
G01X349484Y534602D02*
X347516Y536570D01*
G03X346978Y536347I-223J-223*
G01Y439340*
G03X347293Y439025I315J0*
G01X390591*
G03X390905Y439340I-0J315*
G01Y542195*
G03X390591Y542509I-314J-0*
G01X385306*
G03X385260Y542506I0J-314*
G01X385032Y542489D02*
G03X385260Y542506I0J1565D01*
G01X385032Y542489D02*
X380332D01*
X378999Y544874D02*
G03X380332Y542489I1333J-820D01*
G01X378999Y544874D02*
G03Y545204I-268J165D01*
G01Y546843D02*
G03Y545204I1333J-820D01*
G01Y546843D02*
G03Y547173I-268J165D01*
G01X380332Y549557D02*
G03X378999Y547173I0J-1565D01*
G01X380332Y549557D02*
X385032D01*
X385260Y549541D02*
G03X385032Y549557I-228J-1549D01*
G01X385260Y549541D02*
G03X385306Y549537I46J311D01*
G01X387143*
G03X387366Y549630I0J315*
G01X387465Y549728*
G03X387304Y550260I-223J223*
G01X386976Y550361D02*
G03X387304Y550260I662J1568D01*
G01X386976Y550361D02*
G03X386853Y550385I-123J-290D01*
G01X385306*
G03X385260Y550382I0J-314*
G01X385032Y550365D02*
G03X385260Y550382I0J1565D01*
G01X385032Y550365D02*
X380332D01*
X378999Y552750D02*
G03X380332Y550365I1333J-820D01*
G01X378999Y552750D02*
G03Y553080I-268J165D01*
G01X378773Y553763D02*
G03X378999Y553080I1559J136D01*
G01X378773Y553763D02*
G03X378487Y554049I-313J-28D01*
G01X377059Y555608D02*
G03X378487Y554049I1565J-0D01*
G01X377059Y555608D02*
Y560308D01*
X377239Y561038D02*
G03X377059Y560308I1385J-730D01*
G01X377239Y561038D02*
G03X377276Y561185I-278J147D01*
G01Y563628*
X377671Y564581D02*
G03X377276Y563628I953J-953D01*
G01X377671Y564581D02*
X390578Y577489D01*
X390769Y577647D02*
G03X390578Y577489I762J-1112D01*
G01X390769Y577647D02*
G03X390905Y577907I-178J260D01*
G01X367598Y562933D02*
Y563883D01*
G03X367530Y564080I-315J0*
G01X367235Y564921D02*
G03X367530Y564080I1348J0D01*
G01X367235Y564921D02*
Y565077D01*
G03X367093Y565339I-315J-0*
G01X366683Y566102D02*
G03X367093Y565339I915J0D01*
G01X366683Y566102D02*
Y568071D01*
X367093Y568834D02*
G03X366683Y568071I505J-763D01*
G01X367093Y568834D02*
G03X367235Y569097I-173J263D01*
G01Y570089*
G03X366920Y570404I-315J-0*
G01X364970*
G03X364655Y570089I0J-315*
G01Y564350*
G03X364747Y564127I315J0*
G01X365794Y563081*
X366189Y562156D02*
G03X365794Y563081I-1348J-28D01*
G01X366189Y562156D02*
G03X366555Y561852I314J7D01*
G01X367065D02*
G03X366555I-255J-1544D01*
G01X367065D02*
G03X367431Y562163I51J311D01*
G01Y562205*
X367567Y562795D02*
G03X367431Y562205I1212J-590D01*
G01X367567Y562795D02*
G03X367598Y562933I-284J138D01*
G01X389773Y634213D02*
Y632244D01*
X388858Y631329D02*
G03X389773Y632244I0J915D01*
G01X388858Y631329D02*
X386890D01*
X386136Y631725D02*
G03X386890Y631329I754J519D01*
G01X386136Y631725D02*
G03X385563Y631566I-259J-179D01*
G01X384650Y630708D02*
G03X385563Y631566I-0J915D01*
G01X384650Y630708D02*
X381650D01*
X380735Y631623D02*
G03X381650Y630708I915J-0D01*
G01X380735Y631623D02*
Y634823D01*
X381650Y635738D02*
G03X380735Y634823I-0J-915D01*
G01X381650Y635738D02*
X384650D01*
X385562Y634887D02*
G03X384650Y635738I-912J-64D01*
G01X385562Y634887D02*
G03X386136Y634731I314J23D01*
G01X386890Y635128D02*
G03X386136Y634731I-0J-915D01*
G01X386890Y635128D02*
X388858D01*
X389773Y634213D02*
G03X388858Y635128I-915J-0D01*
G01X389742Y649772D02*
Y643772D01*
X388827Y642857D02*
G03X389742Y643772I-0J915D01*
G01X388827Y642857D02*
X382827D01*
X381912Y643772D02*
G03X382827Y642857I915J-0D01*
G01X381912Y643772D02*
Y649772D01*
X382827Y650687D02*
G03X381912Y649772I-0J-915D01*
G01X382827Y650687D02*
X388827D01*
X389742Y649772D02*
G03X388827Y650687I-915J-0D01*
G01X369742Y646772D02*
G03X369742I-3915J0D01*
G01X359187Y634429D02*
Y631229D01*
X358272Y630314D02*
G03X359187Y631229I-0J915D01*
G01X358272Y630314D02*
X355272D01*
X354358Y631172D02*
G03X355272Y630314I914J57D01*
G01X354358Y631172D02*
G03X353785Y631331I-314J-20D01*
G01X353031Y630935D02*
G03X353785Y631331I0J915D01*
G01X353031Y630935D02*
X351063D01*
X350148Y631850D02*
G03X351063Y630935I915J0D01*
G01X350148Y631850D02*
Y633819D01*
X351063Y634734D02*
G03X350148Y633819I-0J-915D01*
G01X351063Y634734D02*
X353031D01*
X353785Y634338D02*
G03X353031Y634734I-754J-519D01*
G01X353785Y634338D02*
G03X354359Y634494I260J178D01*
G01X355272Y635344D02*
G03X354359Y634494I-0J-915D01*
G01X355272Y635344D02*
X358272D01*
X359187Y634429D02*
G03X358272Y635344I-915J0D01*
G01X365160Y563715D02*
X367598D01*
X365726Y563148D02*
X367598D01*
X366110Y562581D02*
X367484D01*
X364663Y564282D02*
X367396D01*
X366226Y562014D02*
X367394D01*
X364655Y564849D02*
X367237D01*
X364655Y569951D02*
X367235D01*
X364655Y569385D02*
X367235D01*
X364655Y568818D02*
X367070D01*
X364655Y565416D02*
X366993D01*
X364655Y568251D02*
X366701D01*
X364655Y565983D02*
X366691D01*
X364655Y567684D02*
X366683D01*
X364655Y567117D02*
X366683D01*
X364655Y566550D02*
X366683D01*
X346978Y672566D02*
X390905D01*
X346978Y671999D02*
X390905D01*
X346978Y671432D02*
X390905D01*
X346978Y670865D02*
X390905D01*
X346978Y670298D02*
X390905D01*
X346978Y669731D02*
X390905D01*
X346978Y669164D02*
X390905D01*
X346978Y668597D02*
X390905D01*
X346978Y668030D02*
X390905D01*
X346978Y667463D02*
X390905D01*
X346978Y666896D02*
X390905D01*
X346978Y666329D02*
X390905D01*
X346978Y665762D02*
X390905D01*
X346978Y665196D02*
X390905D01*
X346978Y664629D02*
X390905D01*
X346978Y664062D02*
X390905D01*
X346978Y663495D02*
X390905D01*
X346978Y662928D02*
X390905D01*
X346978Y662361D02*
X390905D01*
X346978Y661794D02*
X390905D01*
X346978Y661227D02*
X390905D01*
X346978Y660660D02*
X390905D01*
X346978Y660093D02*
X390905D01*
X346978Y659526D02*
X390905D01*
X346978Y658959D02*
X390905D01*
X346978Y658392D02*
X390905D01*
X346978Y657825D02*
X390905D01*
X346978Y657259D02*
X390905D01*
X346978Y656692D02*
X390905D01*
X346978Y656125D02*
X390905D01*
X346978Y655558D02*
X390905D01*
X346978Y654991D02*
X390905D01*
X346978Y654424D02*
X390905D01*
X346978Y653857D02*
X390905D01*
X346978Y653290D02*
X390905D01*
X346978Y652723D02*
X390905D01*
X346978Y652156D02*
X390905D01*
X346978Y651589D02*
X390905D01*
X346978Y651022D02*
X390905D01*
X389435Y650455D02*
X390905D01*
X389734Y649888D02*
X390905D01*
X389742Y649322D02*
X390905D01*
X389742Y648755D02*
X390905D01*
X389742Y648188D02*
X390905D01*
X389742Y647621D02*
X390905D01*
X389742Y647054D02*
X390905D01*
X389742Y646487D02*
X390905D01*
X389742Y645920D02*
X390905D01*
X389742Y645353D02*
X390905D01*
X389742Y644786D02*
X390905D01*
X389742Y644219D02*
X390905D01*
X389734Y643652D02*
X390905D01*
X389432Y643085D02*
X390905D01*
X377175Y642518D02*
X390905D01*
X377175Y641951D02*
X390905D01*
X377175Y641385D02*
X390905D01*
X377175Y640818D02*
X390905D01*
X377175Y640251D02*
X390905D01*
X377175Y639684D02*
X390905D01*
X377175Y639117D02*
X390905D01*
X377175Y638550D02*
X390905D01*
X377175Y637983D02*
X390905D01*
X377175Y637416D02*
X390905D01*
X377175Y636849D02*
X390905D01*
X377175Y636282D02*
X390905D01*
X384852Y635715D02*
X390905D01*
X385505Y635148D02*
X390905D01*
X389696Y634581D02*
X390905D01*
X389773Y634014D02*
X390905D01*
X389773Y633448D02*
X390905D01*
X389773Y632881D02*
X390905D01*
X389773Y632314D02*
X390905D01*
X389626Y631747D02*
X390905D01*
X385450Y631180D02*
X390905D01*
X377175Y630613D02*
X390905D01*
X377175Y630046D02*
X390905D01*
X385376Y629479D02*
X390905D01*
X385565Y628912D02*
X390905D01*
X385565Y628345D02*
X390905D01*
X385565Y627778D02*
X390905D01*
X385565Y627211D02*
X390905D01*
X385565Y626644D02*
X390905D01*
X385565Y626077D02*
X390905D01*
X385540Y625510D02*
X390905D01*
X385129Y624944D02*
X390905D01*
X383907Y624377D02*
X390905D01*
X383907Y623810D02*
X390905D01*
X383907Y623243D02*
X390905D01*
X387133Y622676D02*
X390905D01*
X387517Y622109D02*
X390905D01*
X387645Y621542D02*
X390905D01*
X387578Y620975D02*
X390905D01*
X387307Y620408D02*
X390905D01*
X387293Y619841D02*
X390905D01*
X387293Y619274D02*
X390905D01*
X387293Y618707D02*
X390905D01*
X387293Y618140D02*
X390905D01*
X387293Y617573D02*
X390905D01*
X387293Y617007D02*
X390905D01*
X387293Y616440D02*
X390905D01*
X387293Y615873D02*
X390905D01*
X387293Y615306D02*
X390905D01*
X387293Y614739D02*
X390905D01*
X387293Y614172D02*
X390905D01*
X387293Y613605D02*
X390905D01*
X387293Y613038D02*
X390905D01*
X387293Y612471D02*
X390905D01*
X387293Y611904D02*
X390905D01*
X387293Y611337D02*
X390905D01*
X387293Y610770D02*
X390905D01*
X387293Y610203D02*
X390905D01*
X387293Y609636D02*
X390905D01*
X387293Y609070D02*
X390905D01*
X387293Y608503D02*
X390905D01*
X387293Y607936D02*
X390905D01*
X387293Y607369D02*
X390905D01*
X387293Y606802D02*
X390905D01*
X387293Y606235D02*
X390905D01*
X387293Y605668D02*
X390905D01*
X387293Y605101D02*
X390905D01*
X387289Y604534D02*
X390905D01*
X387112Y603967D02*
X390905D01*
X386610Y603400D02*
X390905D01*
X386043Y602833D02*
X390905D01*
X385476Y602266D02*
X390905D01*
X384909Y601699D02*
X390905D01*
X384342Y601133D02*
X390905D01*
X383776Y600566D02*
X390905D01*
X383209Y599999D02*
X390905D01*
X382642Y599432D02*
X390905D01*
X382075Y598865D02*
X390905D01*
X381508Y598298D02*
X390905D01*
X381001Y597731D02*
X390905D01*
X383881Y597164D02*
X390905D01*
X384065Y596597D02*
X390905D01*
X384065Y596030D02*
X390905D01*
X384065Y595463D02*
X390905D01*
X384065Y594896D02*
X390905D01*
X384065Y594329D02*
X390905D01*
X384065Y593762D02*
X390905D01*
X384065Y593196D02*
X390905D01*
X384065Y592629D02*
X390905D01*
X384065Y592062D02*
X390905D01*
X383975Y591495D02*
X390905D01*
X383907Y590928D02*
X390905D01*
X383907Y590361D02*
X390905D01*
X383907Y589794D02*
X390905D01*
X383907Y589227D02*
X390905D01*
X383958Y588660D02*
X390905D01*
X384398Y588093D02*
X390905D01*
X384609Y587526D02*
X390905D01*
X384651Y586959D02*
X390905D01*
X384537Y586392D02*
X390905D01*
X384233Y585825D02*
X390905D01*
X383585Y585259D02*
X390905D01*
X380611Y584692D02*
X390905D01*
X380816Y584125D02*
X390905D01*
X380817Y583558D02*
X390905D01*
X380817Y582991D02*
X390905D01*
X380817Y582424D02*
X390905D01*
X380817Y581857D02*
X390905D01*
X380817Y581290D02*
X390905D01*
X380817Y580723D02*
X390905D01*
X380817Y580156D02*
X390905D01*
X380817Y579589D02*
X390905D01*
X380817Y579022D02*
X390905D01*
X380749Y578455D02*
X390905D01*
X364695Y542172D02*
X390905D01*
X385515Y541605D02*
X390905D01*
X386297Y541038D02*
X390905D01*
X386557Y540471D02*
X390905D01*
X386583Y539904D02*
X390905D01*
X386390Y539337D02*
X390905D01*
X385831Y538770D02*
X390905D01*
X380189Y538203D02*
X390905D01*
X380189Y537636D02*
X390905D01*
X380189Y537070D02*
X390905D01*
X380189Y536503D02*
X390905D01*
X380189Y535936D02*
X390905D01*
X380189Y535369D02*
X390905D01*
X380189Y534802D02*
X390905D01*
X380189Y534235D02*
X390905D01*
X380188Y533668D02*
X390905D01*
X380066Y533101D02*
X390905D01*
X379659Y532534D02*
X390905D01*
X376780Y531967D02*
X390905D01*
X376897Y531400D02*
X390905D01*
X376933Y530833D02*
X390905D01*
X377015Y530266D02*
X390905D01*
X377017Y529699D02*
X390905D01*
X377089Y529133D02*
X390905D01*
X377531Y528566D02*
X390905D01*
X377569Y527999D02*
X390905D01*
X377569Y527432D02*
X390905D01*
X377569Y526865D02*
X390905D01*
X377568Y526298D02*
X390905D01*
X377338Y525731D02*
X390905D01*
X374424Y525164D02*
X390905D01*
X374419Y524597D02*
X390905D01*
X374419Y524030D02*
X390905D01*
X374419Y523463D02*
X390905D01*
X374419Y522896D02*
X390905D01*
X374583Y522329D02*
X390905D01*
X374751Y521762D02*
X390905D01*
X374757Y521196D02*
X390905D01*
X374603Y520629D02*
X390905D01*
X374576Y520062D02*
X390905D01*
X374576Y519495D02*
X390905D01*
X374576Y518928D02*
X390905D01*
X374725Y518361D02*
X390905D01*
X374770Y517794D02*
X390905D01*
X374658Y517227D02*
X390905D01*
X374419Y516660D02*
X390905D01*
X374424Y516093D02*
X390905D01*
X377677Y515526D02*
X390905D01*
X377904Y514959D02*
X390905D01*
X377905Y514392D02*
X390905D01*
X377905Y513825D02*
X390905D01*
X377905Y513259D02*
X390905D01*
X377905Y512692D02*
X390905D01*
X377905Y512125D02*
X390905D01*
X377905Y511558D02*
X390905D01*
X377905Y510991D02*
X390905D01*
X377905Y510424D02*
X390905D01*
X377905Y509857D02*
X390905D01*
X377748Y509290D02*
X390905D01*
X376425Y508723D02*
X390905D01*
X376387Y508156D02*
X390905D01*
X376387Y507589D02*
X390905D01*
X376478Y507022D02*
X390905D01*
X377185Y506455D02*
X390905D01*
X377273Y505888D02*
X390905D01*
X377273Y505322D02*
X390905D01*
X377273Y504755D02*
X390905D01*
X377273Y504188D02*
X390905D01*
X377273Y503621D02*
X390905D01*
X377273Y503054D02*
X390905D01*
X377273Y502487D02*
X390905D01*
X377250Y501920D02*
X390905D01*
X376848Y501353D02*
X390905D01*
X376702Y500786D02*
X390905D01*
X376702Y500219D02*
X390905D01*
X376702Y499652D02*
X390905D01*
X376702Y499085D02*
X390905D01*
X376702Y498518D02*
X390905D01*
X376702Y497951D02*
X390905D01*
X376702Y497385D02*
X390905D01*
X376702Y496818D02*
X390905D01*
X376702Y496251D02*
X390905D01*
X376702Y495684D02*
X390905D01*
X376702Y495117D02*
X390905D01*
X376702Y494550D02*
X390905D01*
X376702Y493983D02*
X390905D01*
X376702Y493416D02*
X390905D01*
X376702Y492849D02*
X390905D01*
X376702Y492282D02*
X390905D01*
X376702Y491715D02*
X390905D01*
X376702Y491148D02*
X390905D01*
X376702Y490581D02*
X390905D01*
X376702Y490014D02*
X390905D01*
X376817Y489448D02*
X390905D01*
X377534Y488881D02*
X390905D01*
X378003Y488314D02*
X390905D01*
X378322Y487747D02*
X390905D01*
X378529Y487180D02*
X390905D01*
X378642Y486613D02*
X390905D01*
X378670Y486046D02*
X390905D01*
X378614Y485479D02*
X390905D01*
X378470Y484912D02*
X390905D01*
X378228Y484345D02*
X390905D01*
X377865Y483778D02*
X390905D01*
X377327Y483211D02*
X390905D01*
X376455Y482644D02*
X390905D01*
X375927Y482077D02*
X390905D01*
X376911Y481510D02*
X390905D01*
X377596Y480944D02*
X390905D01*
X378045Y480377D02*
X390905D01*
X378350Y479810D02*
X390905D01*
X378546Y479243D02*
X390905D01*
X378649Y478676D02*
X390905D01*
X378668Y478109D02*
X390905D01*
X378602Y477542D02*
X390905D01*
X378448Y476975D02*
X390905D01*
X378195Y476408D02*
X390905D01*
X377815Y475841D02*
X390905D01*
X377252Y475274D02*
X390905D01*
X376314Y474707D02*
X390905D01*
X375965Y474140D02*
X390905D01*
X377005Y473573D02*
X390905D01*
X377655Y473007D02*
X390905D01*
X378085Y472440D02*
X390905D01*
X378377Y471873D02*
X390905D01*
X378562Y471306D02*
X390905D01*
X378655Y470739D02*
X390905D01*
X378665Y470172D02*
X390905D01*
X378590Y469605D02*
X390905D01*
X378426Y469038D02*
X390905D01*
X378159Y468471D02*
X390905D01*
X377763Y467904D02*
X390905D01*
X377173Y467337D02*
X390905D01*
X376156Y466770D02*
X390905D01*
X376028Y466203D02*
X390905D01*
X377093Y465636D02*
X390905D01*
X377711Y465070D02*
X390905D01*
X378124Y464503D02*
X390905D01*
X378402Y463936D02*
X390905D01*
X384380Y463369D02*
X390905D01*
X385359Y462802D02*
X390905D01*
X385753Y462235D02*
X390905D01*
X385928Y461668D02*
X390905D01*
X385941Y461101D02*
X390905D01*
X385794Y460534D02*
X390905D01*
X385443Y459967D02*
X390905D01*
X385515Y459400D02*
X390905D01*
X385756Y458833D02*
X390905D01*
X385758Y458266D02*
X390905D01*
X385758Y457699D02*
X390905D01*
X385758Y457133D02*
X390905D01*
X385724Y456566D02*
X390905D01*
X385680Y455999D02*
X390905D01*
X385758Y455432D02*
X390905D01*
X385758Y454865D02*
X390905D01*
X385758Y454298D02*
X390905D01*
X385758Y453731D02*
X390905D01*
X385611Y453164D02*
X390905D01*
X378084Y452597D02*
X390905D01*
X377652Y452030D02*
X390905D01*
X385568Y451463D02*
X390905D01*
X385758Y450896D02*
X390905D01*
X385758Y450329D02*
X390905D01*
X385758Y449762D02*
X390905D01*
X385758Y449196D02*
X390905D01*
X385704Y448629D02*
X390905D01*
X385705Y448062D02*
X390905D01*
X385758Y447495D02*
X390905D01*
X385758Y446928D02*
X390905D01*
X385758Y446361D02*
X390905D01*
X385758Y445794D02*
X390905D01*
X385566Y445227D02*
X390905D01*
X378044Y444660D02*
X390905D01*
X377593Y444093D02*
X390905D01*
X376907Y443526D02*
X390905D01*
X375455Y442959D02*
X390905D01*
X346978Y442392D02*
X390905D01*
X346978Y441825D02*
X390905D01*
X346978Y441259D02*
X390905D01*
X346978Y440692D02*
X390905D01*
X346978Y440125D02*
X390905D01*
X346978Y439558D02*
X390905D01*
X379989Y577888D02*
X390905D01*
X346980Y673133D02*
X390904D01*
X374637Y577322D02*
X390411D01*
X374078Y576755D02*
X389844D01*
X373528Y576188D02*
X389277D01*
X373474Y575621D02*
X388710D01*
X373474Y575054D02*
X388143D01*
X373474Y574487D02*
X387576D01*
X364690Y550109D02*
X387515D01*
X385251Y549542D02*
X387198D01*
X373474Y573920D02*
X387009D01*
X373474Y573353D02*
X386442D01*
X385634Y631747D02*
X386120D01*
X373474Y572786D02*
X385875D01*
X373474Y572219D02*
X385308D01*
X383907Y622676D02*
X384757D01*
X373474Y571652D02*
X384742D01*
X373474Y571085D02*
X384175D01*
X373474Y570518D02*
X383608D01*
X378577Y463369D02*
X383337D01*
X373474Y569951D02*
X383041D01*
X373485Y569385D02*
X382474D01*
X378661Y462802D02*
X382357D01*
X377709Y459967D02*
X382273D01*
X377249Y643085D02*
X382222D01*
X377152Y650455D02*
X382219D01*
X377090Y459400D02*
X382202D01*
X378417Y445227D02*
X382124D01*
X378161Y456566D02*
X381993D01*
X378660Y462235D02*
X381963D01*
X376025Y458833D02*
X381961D01*
X376163Y458266D02*
X381959D01*
X377177Y457699D02*
X381959D01*
X377765Y457133D02*
X381959D01*
X378122Y460534D02*
X381923D01*
X378192Y643652D02*
X381920D01*
X378196Y649888D02*
X381919D01*
X378798Y649322D02*
X381912D01*
X379202Y648755D02*
X381912D01*
X379477Y648188D02*
X381912D01*
X379649Y647621D02*
X381912D01*
X379732Y647054D02*
X381912D01*
X379731Y646487D02*
X381912D01*
X379648Y645920D02*
X381912D01*
X379476Y645353D02*
X381912D01*
X379201Y644786D02*
X381912D01*
X378795Y644219D02*
X381912D01*
X374820Y568818D02*
X381907D01*
X378576Y461668D02*
X381788D01*
X378401Y461101D02*
X381776D01*
X364990Y585259D02*
X381534D01*
X377175Y635715D02*
X381448D01*
X375188Y568251D02*
X381340D01*
X376347Y624377D02*
X381211D01*
X376230Y623810D02*
X381211D01*
X376230Y623243D02*
X381211D01*
X376230Y622676D02*
X381211D01*
X376230Y622109D02*
X381211D01*
X376230Y621542D02*
X381211D01*
X376230Y620975D02*
X381211D01*
X376230Y620408D02*
X381211D01*
X376230Y619841D02*
X381211D01*
X376756Y624944D02*
X381145D01*
X377175Y629479D02*
X380923D01*
X365557Y585825D02*
X380885D01*
X377175Y631180D02*
X380849D01*
X377175Y635148D02*
X380794D01*
X375206Y567684D02*
X380773D01*
X376781Y625510D02*
X380760D01*
X377175Y634581D02*
X380735D01*
X377175Y634014D02*
X380735D01*
X377175Y633448D02*
X380735D01*
X377175Y632881D02*
X380735D01*
X377175Y632314D02*
X380735D01*
X377175Y631747D02*
X380735D01*
X377175Y628912D02*
X380735D01*
X377175Y628345D02*
X380735D01*
X377175Y627778D02*
X380735D01*
X377175Y627211D02*
X380735D01*
X377053Y626644D02*
X380735D01*
X376781Y626077D02*
X380735D01*
X366124Y586392D02*
X380581D01*
X366691Y586959D02*
X380421D01*
X375206Y567117D02*
X380206D01*
X364640Y549542D02*
X380114D01*
X364622Y541605D02*
X379849D01*
X375206Y566550D02*
X379639D01*
X364554Y542739D02*
X379485D01*
X364525Y550676D02*
X379397D01*
X377001Y451463D02*
X379249D01*
X364419Y548975D02*
X379114D01*
X375198Y565983D02*
X379072D01*
X364425Y541038D02*
X379068D01*
X364420Y552944D02*
X379044D01*
X364421Y545007D02*
X379044D01*
X378196Y448629D02*
X378971D01*
X364507Y543306D02*
X378958D01*
X364523Y547274D02*
X378942D01*
X364538Y551243D02*
X378926D01*
X364540Y546707D02*
X378925D01*
X364631Y545573D02*
X378833D01*
X364632Y552377D02*
X378832D01*
X364641Y548408D02*
X378824D01*
X364648Y553510D02*
X378816D01*
X364649Y544440D02*
X378816D01*
X375963Y450896D02*
X378814D01*
X364657Y540471D02*
X378808D01*
X364687Y543873D02*
X378778D01*
X364690Y547841D02*
X378775D01*
X364693Y551810D02*
X378772D01*
X364693Y546140D02*
X378772D01*
X377817Y449196D02*
X378703D01*
X367258Y587526D02*
X378664D01*
X376320Y450329D02*
X378613D01*
X377256Y449762D02*
X378579D01*
X374896Y565416D02*
X378505D01*
X375013Y554077D02*
X378297D01*
X368553Y590361D02*
X378233D01*
X368652Y590928D02*
X378229D01*
X377113Y539904D02*
X378165D01*
X367825Y588093D02*
X378164D01*
X368553Y589794D02*
X377959D01*
X372976Y564849D02*
X377938D01*
X368345Y588660D02*
X377928D01*
X368544Y589227D02*
X377865D01*
X372409Y564282D02*
X377445D01*
X375919Y554644D02*
X377391D01*
X372096Y563715D02*
X377279D01*
X372096Y563148D02*
X377276D01*
X372096Y562581D02*
X377276D01*
X372133Y562014D02*
X377276D01*
X375758Y561448D02*
X377276D01*
X376142Y560881D02*
X377167D01*
X376200Y555211D02*
X377110D01*
X376251Y560314D02*
X377059D01*
X376251Y559747D02*
X377059D01*
X376251Y559180D02*
X377059D01*
X376251Y558613D02*
X377059D01*
X376251Y558046D02*
X377059D01*
X376251Y557479D02*
X377059D01*
X376251Y556912D02*
X377059D01*
X376251Y556345D02*
X377059D01*
X376251Y555778D02*
X377059D01*
X375144Y539904D02*
X376196D01*
X363986Y612471D02*
X376093D01*
X363986Y611904D02*
X376093D01*
X363986Y611337D02*
X376093D01*
X363986Y610770D02*
X376093D01*
X375647Y610203D02*
X375909D01*
X375643Y613038D02*
X375895D01*
X367152Y650455D02*
X374501D01*
X362766Y642518D02*
X374479D01*
X363333Y641951D02*
X374479D01*
X363853Y641385D02*
X374479D01*
X364115Y640818D02*
X374479D01*
X364183Y640251D02*
X374479D01*
X364183Y639684D02*
X374479D01*
X364183Y639117D02*
X374479D01*
X364183Y638550D02*
X374479D01*
X364183Y637983D02*
X374479D01*
X364183Y637416D02*
X374479D01*
X364183Y636849D02*
X374479D01*
X364183Y636282D02*
X374479D01*
X364183Y635715D02*
X374479D01*
X364183Y635148D02*
X374479D01*
X364183Y634581D02*
X374479D01*
X364183Y634014D02*
X374479D01*
X364183Y633448D02*
X374479D01*
X364183Y632881D02*
X374479D01*
X364183Y632314D02*
X374479D01*
X364183Y631747D02*
X374479D01*
X364183Y631180D02*
X374479D01*
X364183Y630613D02*
X374479D01*
X364183Y630046D02*
X374479D01*
X364183Y629479D02*
X374479D01*
X364183Y628912D02*
X374479D01*
X364183Y628345D02*
X374479D01*
X367145Y643085D02*
X374405D01*
X373044Y554077D02*
X374359D01*
X369237Y539904D02*
X374227D01*
X346978Y442959D02*
X374151D01*
X373084Y613038D02*
X374121D01*
X363986Y610203D02*
X374038D01*
X346978Y482077D02*
X373679D01*
X346978Y450896D02*
X373644D01*
X346978Y474140D02*
X373642D01*
X346978Y458833D02*
X373581D01*
X346978Y466203D02*
X373578D01*
X369338Y623810D02*
X373534D01*
X368771Y623243D02*
X373534D01*
X368204Y622676D02*
X373534D01*
X367637Y622109D02*
X373534D01*
X367070Y621542D02*
X373534D01*
X366504Y620975D02*
X373534D01*
X366002Y620408D02*
X373534D01*
X365994Y619841D02*
X373534D01*
X364655Y584692D02*
X373483D01*
X368192Y643652D02*
X373461D01*
X368196Y649888D02*
X373458D01*
X346978Y466770D02*
X373450D01*
X346978Y458266D02*
X373443D01*
X370038Y539337D02*
X373427D01*
X371225Y624377D02*
X373417D01*
X370324Y532534D02*
X373336D01*
X346978Y474707D02*
X373292D01*
X346978Y450329D02*
X373286D01*
X364655Y584125D02*
X373278D01*
X364655Y583558D02*
X373278D01*
X364655Y582991D02*
X373278D01*
X364655Y582424D02*
X373278D01*
X364655Y581857D02*
X373278D01*
X364655Y581290D02*
X373278D01*
X364655Y580723D02*
X373278D01*
X364655Y580156D02*
X373278D01*
X371390Y627778D02*
X373256D01*
X363986Y609636D02*
X373255D01*
X370324Y533101D02*
X373243D01*
X370324Y529699D02*
X373184D01*
X370301Y538770D02*
X373163D01*
X346978Y482644D02*
X373152D01*
X370343Y533668D02*
X373121D01*
X370344Y538203D02*
X373121D01*
X370344Y537636D02*
X373121D01*
X370344Y537070D02*
X373121D01*
X370344Y536503D02*
X373121D01*
X370344Y535936D02*
X373121D01*
X370344Y535369D02*
X373121D01*
X370344Y534802D02*
X373121D01*
X370344Y534235D02*
X373121D01*
X364655Y579589D02*
X373086D01*
X371638Y624944D02*
X373008D01*
X370324Y531967D02*
X372991D01*
X371659Y627211D02*
X372987D01*
X371663Y626644D02*
X372983D01*
X371663Y626077D02*
X372983D01*
X371663Y625510D02*
X372983D01*
X363986Y609070D02*
X372906D01*
X346978Y500786D02*
X372904D01*
X346978Y500219D02*
X372904D01*
X346978Y499652D02*
X372904D01*
X346978Y499085D02*
X372904D01*
X346978Y498518D02*
X372904D01*
X346978Y497951D02*
X372904D01*
X346978Y497385D02*
X372904D01*
X346978Y496818D02*
X372904D01*
X346978Y496251D02*
X372904D01*
X346978Y495684D02*
X372904D01*
X346978Y495117D02*
X372904D01*
X346978Y494550D02*
X372904D01*
X346978Y493983D02*
X372904D01*
X346978Y493416D02*
X372904D01*
X346978Y492849D02*
X372904D01*
X346978Y492282D02*
X372904D01*
X346978Y491715D02*
X372904D01*
X346978Y491148D02*
X372904D01*
X346978Y490581D02*
X372904D01*
X346978Y490014D02*
X372904D01*
X370324Y530266D02*
X372873D01*
X368795Y644219D02*
X372858D01*
X368798Y649322D02*
X372856D01*
X346978Y489448D02*
X372790D01*
X370324Y531400D02*
X372788D01*
X363986Y608503D02*
X372760D01*
X370324Y530833D02*
X372752D01*
X346978Y443526D02*
X372699D01*
X346978Y481510D02*
X372695D01*
X346978Y451463D02*
X372605D01*
X346978Y473573D02*
X372601D01*
X346978Y508156D02*
X372589D01*
X346978Y507589D02*
X372589D01*
X346978Y508723D02*
X372551D01*
X364655Y579022D02*
X372528D01*
X346978Y459400D02*
X372517D01*
X346978Y465636D02*
X372513D01*
X346978Y507022D02*
X372498D01*
X369201Y644786D02*
X372453D01*
X369202Y648755D02*
X372451D01*
X346978Y467337D02*
X372433D01*
X346978Y457699D02*
X372430D01*
X371075Y554077D02*
X372390D01*
X346978Y475274D02*
X372354D01*
X346978Y449762D02*
X372351D01*
X346978Y483211D02*
X372279D01*
X369476Y645353D02*
X372178D01*
X369477Y648188D02*
X372177D01*
X346978Y501353D02*
X372129D01*
X346978Y488881D02*
X372072D01*
X346978Y444093D02*
X372013D01*
X346978Y480944D02*
X372010D01*
X369648Y645920D02*
X372006D01*
X369649Y647621D02*
X372005D01*
X364655Y578455D02*
X371969D01*
X346978Y452030D02*
X371954D01*
X346978Y473007D02*
X371951D01*
X369731Y646487D02*
X371922D01*
X369732Y647054D02*
X371922D01*
X346978Y459967D02*
X371897D01*
X346978Y465070D02*
X371895D01*
X346978Y467904D02*
X371843D01*
X346978Y457133D02*
X371841D01*
X346978Y506455D02*
X371792D01*
X346978Y475841D02*
X371791D01*
X346978Y449196D02*
X371789D01*
X346978Y483778D02*
X371742D01*
X346978Y501920D02*
X371727D01*
X346978Y505888D02*
X371703D01*
X346978Y505322D02*
X371703D01*
X346978Y504755D02*
X371703D01*
X346978Y504188D02*
X371703D01*
X346978Y503621D02*
X371703D01*
X346978Y503054D02*
X371703D01*
X346978Y502487D02*
X371703D01*
X346978Y488314D02*
X371603D01*
X346978Y444660D02*
X371563D01*
X370525Y613038D02*
X371562D01*
X346978Y480377D02*
X371561D01*
X346978Y452597D02*
X371522D01*
X346978Y472440D02*
X371521D01*
X346978Y460534D02*
X371484D01*
X346978Y464503D02*
X371482D01*
X346978Y468471D02*
X371447D01*
X346978Y456566D02*
X371446D01*
X346978Y476408D02*
X371412D01*
X364655Y577888D02*
X371411D01*
X346978Y448629D02*
X371410D01*
X363986Y607936D02*
X371385D01*
X346978Y484345D02*
X371378D01*
X346978Y487747D02*
X371284D01*
X346978Y445227D02*
X371257D01*
X346978Y479810D02*
X371256D01*
X346978Y453164D02*
X371230D01*
X346978Y471873D02*
X371229D01*
X346978Y461101D02*
X371205D01*
X346978Y463936D02*
X371204D01*
X346978Y469038D02*
X371181D01*
X346978Y455999D02*
X371180D01*
X346978Y476975D02*
X371158D01*
X346978Y448062D02*
X371157D01*
X346978Y484912D02*
X371136D01*
X346978Y487180D02*
X371077D01*
X346978Y445794D02*
X371061D01*
X346978Y479243D02*
X371060D01*
X346978Y453731D02*
X371045D01*
X346978Y471306D02*
X371044D01*
X346978Y461668D02*
X371030D01*
X346978Y463369D02*
X371030D01*
X346978Y469605D02*
X371017D01*
X346978Y455432D02*
X371016D01*
X346978Y477542D02*
X371004D01*
X346978Y447495D02*
X371004D01*
X346978Y485479D02*
X370993D01*
X346978Y486613D02*
X370964D01*
X346978Y446361D02*
X370957D01*
X346978Y478676D02*
X370957D01*
X346978Y454298D02*
X370951D01*
X346978Y470739D02*
X370951D01*
X346978Y462235D02*
X370946D01*
X346978Y462802D02*
X370946D01*
X346978Y470172D02*
X370942D01*
X346978Y454865D02*
X370942D01*
X346978Y478109D02*
X370939D01*
X346978Y446928D02*
X370939D01*
X346978Y486046D02*
X370937D01*
X363986Y607369D02*
X370637D01*
X346978Y524597D02*
X370620D01*
X346978Y524030D02*
X370620D01*
X346978Y517227D02*
X370620D01*
X346978Y516660D02*
X370620D01*
X346978Y516093D02*
X370620D01*
X346978Y525164D02*
X370616D01*
X346978Y518361D02*
X370590D01*
X346978Y515526D02*
X370586D01*
X346978Y517794D02*
X370584D01*
X346978Y518928D02*
X370575D01*
X346978Y519495D02*
X370567D01*
X346978Y520062D02*
X370559D01*
X346978Y523463D02*
X370552D01*
X346978Y520629D02*
X370551D01*
X346978Y521196D02*
X370542D01*
X346978Y522896D02*
X370542D01*
X346978Y522329D02*
X370542D01*
X346978Y521762D02*
X370542D01*
X346978Y509290D02*
X370524D01*
X369106Y554077D02*
X370421D01*
X346978Y514959D02*
X370367D01*
X346978Y514392D02*
X370367D01*
X346978Y513825D02*
X370367D01*
X346978Y513259D02*
X370367D01*
X346978Y512692D02*
X370367D01*
X346978Y512125D02*
X370367D01*
X346978Y511558D02*
X370367D01*
X346978Y510991D02*
X370367D01*
X346978Y510424D02*
X370367D01*
X346978Y509857D02*
X370367D01*
X363986Y606802D02*
X370298D01*
X363986Y606235D02*
X370159D01*
X365407Y613038D02*
X369003D01*
X363933Y605668D02*
X368816D01*
X365994Y619274D02*
X368494D01*
X360358Y601699D02*
X368455D01*
X359791Y601133D02*
X368455D01*
X359224Y600566D02*
X368455D01*
X358658Y599999D02*
X368455D01*
X367137Y554077D02*
X368452D01*
X358091Y599432D02*
X368416D01*
X357524Y598865D02*
X368416D01*
X356957Y598298D02*
X368416D01*
X356390Y597731D02*
X368407D01*
X360925Y602266D02*
X368389D01*
X366089Y613605D02*
X368321D01*
X367268Y539904D02*
X368320D01*
X366150Y618707D02*
X368259D01*
X366151Y618140D02*
X368258D01*
X366151Y617573D02*
X368258D01*
X366151Y617007D02*
X368258D01*
X366151Y616440D02*
X368258D01*
X366151Y615873D02*
X368258D01*
X366151Y615306D02*
X368258D01*
X366151Y614739D02*
X368258D01*
X366151Y614172D02*
X368258D01*
X363693Y605101D02*
X368145D01*
X364183Y627778D02*
X368138D01*
X361492Y602833D02*
X367953D01*
X364183Y627211D02*
X367869D01*
X364183Y626644D02*
X367865D01*
X363193Y604534D02*
X367833D01*
X364183Y626077D02*
X367791D01*
X362059Y603400D02*
X367749D01*
X362626Y603967D02*
X367712D01*
X364183Y625510D02*
X367226D01*
X364183Y624944D02*
X366659D01*
X365168Y554077D02*
X366483D01*
X364683Y539904D02*
X366351D01*
X364183Y624377D02*
X366092D01*
X364490Y539337D02*
X365551D01*
X364183Y623810D02*
X365525D01*
X363931Y538770D02*
X365287D01*
X358750Y533101D02*
X365265D01*
X358750Y532534D02*
X365265D01*
X358750Y531967D02*
X365265D01*
X358750Y533668D02*
X365245D01*
X359219Y538203D02*
X365245D01*
X358752Y537636D02*
X365245D01*
X358750Y537070D02*
X365245D01*
X358750Y536503D02*
X365245D01*
X358750Y535936D02*
X365245D01*
X358750Y535369D02*
X365245D01*
X358750Y534802D02*
X365245D01*
X358750Y534235D02*
X365245D01*
X358757Y531400D02*
X365003D01*
X364183Y623243D02*
X364958D01*
X362199Y643085D02*
X364508D01*
X357152Y650455D02*
X364501D01*
X359254Y530833D02*
X364436D01*
X359821Y530266D02*
X363869D01*
X361632Y643652D02*
X363461D01*
X358196Y649888D02*
X363458D01*
X360388Y529699D02*
X363350D01*
X350158Y556345D02*
X363276D01*
X350158Y555778D02*
X363276D01*
X362392Y556912D02*
X363254D01*
X350158Y590361D02*
X363246D01*
X350158Y590928D02*
X363198D01*
X361065Y644219D02*
X362858D01*
X358798Y649322D02*
X362856D01*
X350158Y589794D02*
X362689D01*
X360498Y644786D02*
X362453D01*
X359202Y648755D02*
X362451D01*
X359931Y645353D02*
X362178D01*
X359477Y648188D02*
X362177D01*
X350158Y589227D02*
X362122D01*
X359648Y645920D02*
X362006D01*
X359649Y647621D02*
X362005D01*
X359731Y646487D02*
X361922D01*
X359732Y647054D02*
X361922D01*
X350158Y588660D02*
X361555D01*
X350158Y556912D02*
X361309D01*
X350158Y588093D02*
X360988D01*
X350158Y587526D02*
X360584D01*
X350158Y586959D02*
X360493D01*
X350158Y586392D02*
X360493D01*
X350158Y585825D02*
X360493D01*
X350158Y585259D02*
X360493D01*
X350158Y584692D02*
X360493D01*
X350158Y584125D02*
X360493D01*
X350158Y583558D02*
X360493D01*
X350158Y582991D02*
X360493D01*
X350158Y582424D02*
X360493D01*
X350158Y581857D02*
X360493D01*
X350158Y581290D02*
X360493D01*
X350158Y580723D02*
X360493D01*
X350158Y580156D02*
X360493D01*
X350158Y579589D02*
X360493D01*
X350158Y579022D02*
X360493D01*
X350158Y578455D02*
X360493D01*
X350158Y577888D02*
X360493D01*
X350158Y577322D02*
X360493D01*
X350158Y576755D02*
X360493D01*
X350158Y576188D02*
X360493D01*
X350158Y575621D02*
X360493D01*
X350158Y575054D02*
X360493D01*
X350158Y574487D02*
X360493D01*
X350158Y573920D02*
X360493D01*
X350158Y573353D02*
X360493D01*
X350158Y572786D02*
X360493D01*
X350158Y572219D02*
X360493D01*
X350158Y571652D02*
X360493D01*
X350158Y571085D02*
X360493D01*
X350158Y570518D02*
X360493D01*
X350158Y569951D02*
X360493D01*
X350158Y569385D02*
X360493D01*
X350158Y568818D02*
X360493D01*
X350158Y568251D02*
X360493D01*
X350158Y567684D02*
X360493D01*
X350158Y567117D02*
X360493D01*
X350158Y566550D02*
X360493D01*
X350158Y565983D02*
X360493D01*
X350158Y565416D02*
X360493D01*
X350158Y564849D02*
X360493D01*
X350158Y564282D02*
X360493D01*
X350158Y563715D02*
X360493D01*
X350158Y563148D02*
X360493D01*
X350158Y562581D02*
X360493D01*
X350158Y562014D02*
X360493D01*
X350158Y561448D02*
X360493D01*
X350158Y560881D02*
X360493D01*
X346978Y639117D02*
X360384D01*
X346978Y638550D02*
X360384D01*
X346978Y637983D02*
X360384D01*
X346978Y637416D02*
X360384D01*
X346978Y636849D02*
X360384D01*
X346978Y636282D02*
X360384D01*
X346978Y635715D02*
X360384D01*
X358837Y635148D02*
X360384D01*
X359174Y634581D02*
X360384D01*
X359187Y634014D02*
X360384D01*
X359187Y633448D02*
X360384D01*
X359187Y632881D02*
X360384D01*
X359187Y632314D02*
X360384D01*
X359187Y631747D02*
X360384D01*
X359185Y631180D02*
X360384D01*
X358948Y630613D02*
X360384D01*
X346978Y630046D02*
X360384D01*
X346978Y629479D02*
X360384D01*
X359103Y628912D02*
X360384D01*
X359187Y628345D02*
X360384D01*
X359187Y627778D02*
X360384D01*
X359187Y627211D02*
X360384D01*
X359187Y626644D02*
X360384D01*
X359430Y626077D02*
X360384D01*
X350158Y557479D02*
X360344D01*
X350158Y560314D02*
X360270D01*
X346978Y639684D02*
X360229D01*
X346978Y612471D02*
X360187D01*
X346978Y611904D02*
X360187D01*
X346978Y611337D02*
X360187D01*
X346978Y610770D02*
X360187D01*
X346978Y610203D02*
X360187D01*
X346978Y609636D02*
X360187D01*
X346978Y609070D02*
X360187D01*
X346978Y608503D02*
X360187D01*
X346978Y607936D02*
X360187D01*
X346978Y607369D02*
X360187D01*
X346978Y606802D02*
X360089D01*
X350158Y558046D02*
X359953D01*
X350158Y559747D02*
X359917D01*
X350158Y558613D02*
X359780D01*
X350158Y559180D02*
X359768D01*
X346978Y640251D02*
X359662D01*
X346978Y606235D02*
X359522D01*
X346978Y640818D02*
X359095D01*
X346978Y525731D02*
X359043D01*
X346978Y605668D02*
X358955D01*
X346978Y613038D02*
X358766D01*
X346978Y641385D02*
X358528D01*
X346978Y526298D02*
X358418D01*
X346978Y605101D02*
X358388D01*
X355823Y597164D02*
X358206D01*
X350184Y591495D02*
X358112D01*
X346978Y623243D02*
X358101D01*
X346978Y622676D02*
X358101D01*
X346978Y622109D02*
X358101D01*
X346978Y621542D02*
X358101D01*
X346978Y620975D02*
X358101D01*
X346978Y620408D02*
X358101D01*
X346978Y619841D02*
X358101D01*
X346978Y619274D02*
X358101D01*
X346978Y613605D02*
X358084D01*
X346978Y618707D02*
X358023D01*
X346978Y618140D02*
X358022D01*
X346978Y617573D02*
X358022D01*
X346978Y617007D02*
X358022D01*
X346978Y616440D02*
X358022D01*
X346978Y615873D02*
X358022D01*
X346978Y615306D02*
X358022D01*
X346978Y614739D02*
X358022D01*
X346978Y614172D02*
X358022D01*
X355256Y596597D02*
X358022D01*
X354689Y596030D02*
X358022D01*
X354122Y595463D02*
X358022D01*
X353555Y594896D02*
X358022D01*
X352988Y594329D02*
X358022D01*
X352421Y593762D02*
X358022D01*
X351854Y593196D02*
X358022D01*
X351287Y592629D02*
X358022D01*
X350721Y592062D02*
X358022D01*
X346978Y641951D02*
X357961D01*
X346978Y623810D02*
X357885D01*
X346978Y526865D02*
X357851D01*
X346978Y604534D02*
X357821D01*
X350158Y555211D02*
X357579D01*
X346978Y642518D02*
X357394D01*
X346978Y624377D02*
X357299D01*
X346978Y527432D02*
X357284D01*
X346978Y603967D02*
X357254D01*
X350158Y548975D02*
X357146D01*
X350158Y552944D02*
X357144D01*
X350158Y554644D02*
X357056D01*
X350158Y550676D02*
X357040D01*
X350158Y551243D02*
X357026D01*
X350158Y552377D02*
X356932D01*
X350158Y549542D02*
X356925D01*
X350158Y548408D02*
X356924D01*
X350158Y553510D02*
X356916D01*
X350158Y554077D02*
X356878D01*
X353485Y547841D02*
X356875D01*
X350158Y550109D02*
X356874D01*
X350158Y551810D02*
X356872D01*
X346978Y527999D02*
X356717D01*
X346978Y603400D02*
X356687D01*
X346978Y528566D02*
X356150D01*
X346978Y602833D02*
X356120D01*
X346978Y529133D02*
X355583D01*
X346978Y602266D02*
X355553D01*
X346978Y529699D02*
X355153D01*
X346978Y601699D02*
X354987D01*
X346978Y530266D02*
X354973D01*
X346978Y532534D02*
X354951D01*
X346978Y531967D02*
X354951D01*
X346978Y531400D02*
X354951D01*
X346978Y530833D02*
X354951D01*
X346978Y533101D02*
X354908D01*
X346978Y635148D02*
X354706D01*
X346978Y630613D02*
X354595D01*
X346978Y643085D02*
X354508D01*
X346978Y650455D02*
X354501D01*
X346978Y624944D02*
X354442D01*
X346978Y628912D02*
X354441D01*
X346978Y601133D02*
X354420D01*
X353537Y634581D02*
X354369D01*
X353654Y631180D02*
X354358D01*
X346978Y628345D02*
X354357D01*
X346978Y627778D02*
X354357D01*
X346978Y627211D02*
X354357D01*
X346978Y626644D02*
X354357D01*
X346978Y626077D02*
X354357D01*
X346978Y625510D02*
X354357D01*
X346978Y533668D02*
X354355D01*
X346978Y600566D02*
X353853D01*
X346978Y643652D02*
X353461D01*
X346978Y649888D02*
X353458D01*
X346978Y599999D02*
X353286D01*
X346978Y644219D02*
X352858D01*
X346978Y649322D02*
X352856D01*
X346978Y599432D02*
X352719D01*
X346978Y644786D02*
X352453D01*
X346978Y648755D02*
X352451D01*
X346978Y645353D02*
X352178D01*
X346978Y648188D02*
X352177D01*
X346978Y598865D02*
X352152D01*
X346978Y645920D02*
X352006D01*
X346978Y647621D02*
X352005D01*
X346978Y646487D02*
X351922D01*
X346978Y647054D02*
X351922D01*
X346978Y598298D02*
X351585D01*
X350158Y547841D02*
X351397D01*
X346978Y597731D02*
X351018D01*
X350191Y547274D02*
X350759D01*
X346978Y634581D02*
X350557D01*
X346978Y597164D02*
X350451D01*
X346978Y631180D02*
X350441D01*
X346978Y634014D02*
X350169D01*
X346978Y631747D02*
X350154D01*
X346978Y633448D02*
X350148D01*
X346978Y632881D02*
X350148D01*
X346978Y632314D02*
X350148D01*
X346978Y534235D02*
X350000D01*
X346978Y596597D02*
X349884D01*
X346978Y596030D02*
X349317D01*
X346978Y534802D02*
X349284D01*
X346978Y595463D02*
X348750D01*
X346978Y535369D02*
X348717D01*
X346978Y594896D02*
X348183D01*
X346978Y535936D02*
X348150D01*
X347003Y594329D02*
X347616D01*
X347019Y536503D02*
X347583D01*
X389858Y565983D02*
X390905D01*
X389291Y565416D02*
X390905D01*
X388724Y564849D02*
X390905D01*
X388157Y564282D02*
X390905D01*
X387590Y563715D02*
X390905D01*
X387023Y563148D02*
X390905D01*
X386456Y562581D02*
X390905D01*
X385889Y562014D02*
X390905D01*
X385322Y561448D02*
X390905D01*
X384756Y560881D02*
X390905D01*
X384189Y560314D02*
X390905D01*
X384030Y559747D02*
X390905D01*
X384030Y559180D02*
X390905D01*
X384030Y558613D02*
X390905D01*
X384030Y558046D02*
X390905D01*
X384030Y557479D02*
X390905D01*
X384030Y556912D02*
X390905D01*
X384030Y556345D02*
X390905D01*
X384030Y555778D02*
X390905D01*
X385886Y555211D02*
X390905D01*
X386409Y554644D02*
X390905D01*
X386587Y554077D02*
X390905D01*
X388268Y553510D02*
X390905D01*
X390446Y566550D02*
X390735D01*
X389005Y552944D02*
X390680D01*
X389280Y552377D02*
X390113D01*
X386815Y553510D02*
X387005D01*
G54D101*
X397717Y576535D02*
X402047Y580866D01*
G54D118*
X348444Y440491D03*
X358444D03*
X378444D03*
X388444D03*
X348444Y450491D03*
X358444D03*
X380669Y449921D03*
X388444Y450491D03*
X348444Y460491D03*
X358444D03*
X383858Y461339D03*
X388444Y460491D03*
X348444Y470491D03*
X358444D03*
X388444D03*
X348444Y480491D03*
X358444D03*
X388444D03*
X348444Y490491D03*
X358444D03*
X388444D03*
X348444Y500491D03*
X358444D03*
X388444D03*
X348444Y510491D03*
X368444D03*
X372677Y517913D03*
X388444Y510491D03*
X405157Y519528D03*
X348444Y520491D03*
X368444D03*
X372677Y521457D03*
X388444Y520491D03*
X348444Y530491D03*
X352520Y538976D03*
X374843Y530984D03*
X388386Y539173D03*
X388444Y530491D03*
X352441Y546024D03*
X352520Y542559D03*
X368189Y543189D03*
X368425Y546890D03*
X372835Y546811D03*
Y543071D03*
X389882Y546496D03*
X409882Y545866D03*
X580157Y544488D03*
X589488Y544567D03*
X361850Y558937D03*
X368307Y550512D03*
X372953Y550748D03*
X385866Y559291D03*
X397323Y552520D03*
X418976Y553465D03*
X414449Y559488D03*
X366732Y563504D03*
X584882Y561299D03*
X593898Y561417D03*
X389882Y579016D03*
X379961Y589173D03*
X382559Y587087D03*
X389882Y589370D03*
Y583858D03*
X405157Y589528D03*
X389882Y598583D03*
Y594646D03*
X348444Y600491D03*
X369803Y603819D03*
X372244Y606024D03*
X377441Y600197D03*
X374843Y608268D03*
X380000Y602441D03*
X387992Y600945D03*
X389882Y604449D03*
X348444Y610491D03*
X353307Y612717D03*
X389803Y616260D03*
Y610472D03*
X348444Y620491D03*
X378661Y622244D03*
X370157Y621496D03*
X389803Y625748D03*
Y621457D03*
X348444Y630491D03*
X381811Y639685D03*
X389803Y637087D03*
X348444Y640491D03*
X390157Y640197D03*
X348444Y650491D03*
X389921Y655079D03*
X348444Y660491D03*
X358444D03*
X368444D03*
X378444D03*
X388444D03*
X389921Y667913D03*
Y663937D03*
X348444Y670491D03*
X358444D03*
X368444D03*
X378444D03*
X389882Y671024D03*
G54D178*
X385827Y646772D03*
G54D179*
X375827D03*
X365827D03*
X355827D03*
G54D185*
X394567Y576535D03*
X397717D03*
X383858Y454646D03*
Y457795D03*
X378031Y626142D03*
X374882D03*
X398898Y565512D03*
X402047D03*
X401654Y552520D03*
X404803D03*
X394567Y569449D03*
X391417D03*
X405197Y569055D03*
X402047D03*
Y576929D03*
X405197D03*
Y572992D03*
X402047D03*
X405197Y580866D03*
X402047D03*
X405197Y527717D03*
X402047D03*
X383858Y446772D03*
Y449921D03*
X387874Y630079D03*
Y633228D03*
X362283Y625748D03*
X365433D03*
X369764Y629291D03*
Y626142D03*
X365433Y567087D03*
X368583D03*
X352047Y629685D03*
Y632835D03*
X362283Y629685D03*
X365433D03*
X402047Y539134D03*
X398898D03*
X373307Y567087D03*
X376457D03*
X368583Y527323D03*
Y524173D03*
X372520Y527323D03*
X375669D03*
X364646D03*
Y524173D03*
X391417Y572992D03*
X394567D03*
X402047Y531654D03*
X405197D03*
Y535591D03*
X402047D03*
G54D246*
X382559Y616299D03*
X380000D03*
X377441D03*
X374882D03*
X372323D03*
X369764D03*
X367205D03*
X364646D03*
X362087D03*
X359528D03*
Y594252D03*
X362087D03*
X364646D03*
X367205D03*
X369764D03*
X372323D03*
X374882D03*
X377441D03*
X380000D03*
X382559D03*
G54D374*
X380669Y449921D02*
X383858D01*
Y457795D02*
Y461339D01*
X352520Y538976D02*
X355629Y542085D01*
X360782*
X374843Y530984D02*
Y531018D01*
X375669Y530191*
Y527323*
X374686Y536058D02*
Y531141D01*
X374843Y530984*
X360782Y546023D02*
X355906D01*
Y546024*
Y546023D02*
X352441D01*
Y546024*
X352520Y542559D02*
X354015Y544054D01*
X360782*
Y545997D02*
Y546023D01*
X361841Y558946D02*
Y587040D01*
X364646Y589844*
Y594252*
X361841Y558946D02*
X361850Y558937D01*
X368779Y557958D02*
Y562205D01*
X368946Y562373*
X370748Y557958D02*
Y564527D01*
X373307Y567087*
X378624Y557958D02*
Y563628D01*
X391531Y576535*
X394567*
X382682Y553899D02*
Y560714D01*
X391417Y569449*
X368583Y567087D02*
Y564921D01*
X368946Y564557*
Y562373*
X365433Y567087D02*
Y564803D01*
X366732Y563504*
X391417Y569449D02*
Y572244D01*
X391496Y572323*
X367205Y573976D02*
X368583D01*
Y567087*
X372126Y576693D02*
X376816Y581457D01*
X377047*
X372126Y576693D02*
Y568780D01*
X373307Y567598*
Y567087*
X389882Y579016D02*
Y583858D01*
X394567Y572992D02*
X394606D01*
X391417D02*
X391496Y572913D01*
Y572323*
X394567Y581654D02*
Y576535D01*
X394606Y576496*
Y572992*
X363307Y585482D02*
X367205Y589380D01*
Y594252*
X363307Y585482D02*
Y563661D01*
X364841Y562128*
Y557958*
X379961Y589173D02*
X380000D01*
Y594252*
X389882Y589370D02*
Y594646D01*
X377384Y596081D02*
X385945Y604641D01*
Y621457*
X377384Y596081D02*
Y594252D01*
X377441*
X374882D02*
X374921D01*
X369764D02*
Y599444D01*
X369803Y599483*
Y603819*
X382559Y594252D02*
Y587087D01*
X389882Y598583D02*
Y604449D01*
X372244Y606024D02*
X372323Y605945D01*
Y594252*
X377441Y600197D02*
Y616299D01*
X374843Y608268D02*
X374921Y608189D01*
Y594252*
X380000Y602441D02*
Y616299D01*
X364646D02*
Y621024D01*
X369764Y626142*
X374882Y616299D02*
Y626142D01*
X382559Y616299D02*
Y627323D01*
X383150*
X389803Y610472D02*
Y616260D01*
X356772Y626929D02*
Y626829D01*
X359449Y624152*
Y616299*
X359528*
X374882Y626142D02*
Y626260D01*
X375827Y627205*
Y646772*
X389803Y621457D02*
Y625748D01*
X352047Y632835D02*
X356772D01*
Y632829*
X383150Y633223D02*
Y633228D01*
X387874*
X389803Y637087D02*
Y639843D01*
X390157Y640197*
X374882Y645827D02*
X375827Y646772D01*
X389921Y655079D02*
Y663937D01*
X389882Y671024D02*
X389921Y671063D01*
Y667913*
G54D517*
X374803Y446772D03*
Y454646D03*
Y462520D03*
Y470394D03*
Y478268D03*
Y486142D03*
G54D532*
X364840Y536058D03*
X366810D03*
X368779D03*
X370748D03*
X372717D03*
X374686D03*
X376655D03*
X378624D03*
Y557958D03*
X376655D03*
X374686D03*
X372717D03*
X370748D03*
X368779D03*
X366810D03*
X364841D03*
G54D533*
X382682Y540116D03*
Y542085D03*
Y544054D03*
Y546023D03*
Y547992D03*
Y549961D03*
Y551930D03*
Y553899D03*
X360782D03*
Y551930D03*
Y549961D03*
Y547992D03*
Y546023D03*
Y544054D03*
Y542085D03*
Y540116D03*
G54D534*
X371732Y547008D03*
G54D535*
X367205Y573976D03*
X377047D03*
Y581457D03*
X367205D03*
G54D536*
X402638Y558819D03*
X395157D03*
X403031Y546220D03*
X395551D03*
G54D549*
X374488Y504094D03*
X380787D03*
G54D550*
X368779Y527323D02*
Y536058D01*
X364646Y527323D02*
Y528858D01*
X366810Y531022*
Y536058*
X357795Y539461D02*
X358451Y540116D01*
X360782*
X382682Y547992D02*
X387914D01*
X394488Y554567*
Y558819*
X395157*
X382682Y546023D02*
X389488D01*
X389921Y546457*
X382682Y544054D02*
X395551D01*
Y546220*
X389882Y546496D02*
X389921Y546457D01*
X387638Y551929D02*
X387639Y551930D01*
X382682*
X362087Y621063D02*
Y625748D01*
X362283*
G74*
X0Y0D02*
M02*
