%
T1C.00787F0S0
X038764Y055193
X038594Y062146
T2C.01181F095S3
X034844Y044049
X035844Y044049
X034844Y045049
X035844Y045049
X034844Y046049
X035844Y046049
X034844Y047049
X035844Y047049
X034844Y048049
X035844Y048049
X034844Y049049
X035844Y049049
X034844Y050049
X035844Y050049
X034844Y051049
X036844Y051049
X037268Y051791
X034844Y052049
X036844Y052049
X037268Y052146
X034844Y053049
X035252Y053898
X035252Y054256
X037283Y054307
X036819Y054319
X035244Y054602
X037283Y054681
X036843Y054689
X036831Y055051
X037295Y055075
X036185Y055894
X036673Y05635
X034844Y060049
X03698Y060382
X037224Y060602
X034844Y061049
X035331Y061272
X034844Y062049
X037016Y06215
X034844Y063049
X034844Y064049
X034844Y065049
X034844Y066049
X035844Y066049
X036844Y066049
X034844Y067049
X035844Y067049
X036844Y067049
X038988Y067102
X037844Y067049
X038992Y066791
X038992Y066394
X037844Y066049
X038844Y066049
X038992Y065508
X039016Y06402
X038181Y063969
X03898Y063709
X03898Y062575
X037866Y062224
X03898Y062146
X03898Y061626
X03898Y061047
X037484Y060827
X038988Y060445
X038Y060244
X038799Y060094
X037744Y06002
X038988Y059858
X038988Y059465
X038988Y058937
X037996Y058917
X038256Y058709
X038988Y058386
X038988Y057902
X038587Y055929
X039732Y055252
X038988Y05465
X038839Y053917
X037484Y053098
X038844Y053049
X038844Y052049
X038844Y051049
X038844Y050049
X038844Y049049
X038844Y048049
X038844Y047049
X038386Y046134
X038844Y046049
X038844Y045049
X038067Y044992
X038844Y044049
X037844Y044049
X040516Y051953
X040988Y054587
X041898Y055346
X041445Y055949
X040516Y058953
X05939Y056142
X058488Y05613
X058949Y054457
X058016Y054449
T3C.0315F197S55
X03748Y044677
X03748Y045465
X03748Y046252
X03748Y047039
X03748Y047827
X03748Y048614
T4C.035F197S55
X036583Y064677
X035583Y064677
X038583Y064677
X037583Y064677
M30
