*
*
G04 PADS 9.5 Build Number: 522968 generated Gerber (RS-274-X) file*
G04 PC Version=2.1*
*
%IN "AD-15-RFID_0928.pcb"*%
*
%MOIN*%
*
%FSLAX35Y35*%
*
*
*
*
G04 PC Standard Apertures*
*
*
G04 Thermal Relief Aperture macro.*
%AMTER*
1,1,$1,0,0*
1,0,$1-$2,0,0*
21,0,$3,$4,0,0,45*
21,0,$3,$4,0,0,135*
%
*
*
G04 Annular Aperture macro.*
%AMANN*
1,1,$1,0,0*
1,0,$2,0,0*
%
*
*
G04 Odd Aperture macro.*
%AMODD*
1,1,$1,0,0*
1,0,$1-0.005,0,0*
%
*
*
G04 PC Custom Aperture Macros*
*
*
*
*
*
*
G04 PC Aperture Table*
*
%ADD010C,0.001*%
%ADD011R,0.03X0.032*%
%ADD032C,0.03937*%
%ADD042R,0.05709X0.05118*%
%ADD185R,0.01969X0.01969*%
%ADD246R,0.01181X0.04724*%
%ADD532O,0.013X0.06*%
%ADD533O,0.06X0.013*%
%ADD534R,0.11X0.11*%
%ADD535R,0.05709X0.05315*%
%ADD536R,0.05118X0.05906*%
%ADD549R,0.0374X0.03937*%
*
*
*
*
G04 PC Circuitry*
G04 Layer Name AD-15-RFID_0928.pcb - circuitry*
%LPD*%
*
*
G04 PC Custom Flashes*
G04 Layer Name AD-15-RFID_0928.pcb - flashes*
%LPD*%
*
*
G04 PC Circuitry*
G04 Layer Name AD-15-RFID_0928.pcb - circuitry*
%LPD*%
*
G54D10*
G01X346063Y438110D02*
X621654D01*
Y674331*
X346063*
Y438110*
X431693Y651693D02*
G75*
G03X431693I-4921J0D01*
G01X565551D02*
G03X565551I-4921J0D01*
G01X431693Y460748D02*
G03X431693I-4921J0D01*
G01X565551D02*
G03X565551I-4921J0D01*
G54D11*
G01X383150Y627323D03*
Y633223D03*
X356772Y626929D03*
Y632829D03*
G54D32*
X394567Y581654D03*
X405512Y564882D03*
X405118Y585354D03*
Y523543D03*
X405591Y539528D03*
G54D42*
X374136Y512362D03*
X383502D03*
G54D185*
X394567Y576535D03*
X397717D03*
X383858Y454646D03*
Y457795D03*
X378031Y626142D03*
X374882D03*
X398898Y565512D03*
X402047D03*
X401654Y552520D03*
X404803D03*
X394567Y569449D03*
X391417D03*
X405197Y569055D03*
X402047D03*
Y576929D03*
X405197D03*
Y572992D03*
X402047D03*
X405197Y580866D03*
X402047D03*
X405197Y527717D03*
X402047D03*
X383858Y446772D03*
Y449921D03*
X387874Y630079D03*
Y633228D03*
X362283Y625748D03*
X365433D03*
X369764Y629291D03*
Y626142D03*
X365433Y567087D03*
X368583D03*
X352047Y629685D03*
Y632835D03*
X362283Y629685D03*
X365433D03*
X402047Y539134D03*
X398898D03*
X373307Y567087D03*
X376457D03*
X368583Y527323D03*
Y524173D03*
X372520Y527323D03*
X375669D03*
X364646D03*
Y524173D03*
X391417Y572992D03*
X394567D03*
X402047Y531654D03*
X405197D03*
Y535591D03*
X402047D03*
G54D246*
X382559Y616299D03*
X380000D03*
X377441D03*
X374882D03*
X372323D03*
X369764D03*
X367205D03*
X364646D03*
X362087D03*
X359528D03*
Y594252D03*
X362087D03*
X364646D03*
X367205D03*
X369764D03*
X372323D03*
X374882D03*
X377441D03*
X380000D03*
X382559D03*
G54D532*
X364840Y536058D03*
X366810D03*
X368779D03*
X370748D03*
X372717D03*
X374686D03*
X376655D03*
X378624D03*
Y557958D03*
X376655D03*
X374686D03*
X372717D03*
X370748D03*
X368779D03*
X366810D03*
X364841D03*
G54D533*
X382682Y540116D03*
Y542085D03*
Y544054D03*
Y546023D03*
Y547992D03*
Y549961D03*
Y551930D03*
Y553899D03*
X360782D03*
Y551930D03*
Y549961D03*
Y547992D03*
Y546023D03*
Y544054D03*
Y542085D03*
Y540116D03*
G54D534*
X371732Y547008D03*
G54D535*
X367205Y573976D03*
X377047D03*
Y581457D03*
X367205D03*
G54D536*
X402638Y558819D03*
X395157D03*
X403031Y546220D03*
X395551D03*
G54D549*
X374488Y504094D03*
X380787D03*
G74*
X0Y0D02*
M02*
