%
T1C.01181F095S3
X020238Y020238
X022238Y020238
X021238Y020238
X020238Y021238
X020238Y022238
X020238Y023238
X021238Y023238
X020238Y024238
X022238Y024238
X021238Y024238
X020238Y025238
X021238Y025238
X022238Y025238
X020238Y026238
X022238Y026238
X021238Y026238
X020238Y027238
X021238Y027238
X022238Y027238
X020238Y028238
X022238Y028238
X021238Y028238
X020238Y029238
X021238Y029238
X022238Y029238
X020238Y030238
X022238Y030238
X021238Y030238
X020238Y031238
X021238Y031238
X022238Y031238
X020238Y032238
X022238Y032238
X021238Y032238
X020238Y033238
X021238Y033238
X022238Y033238
X020238Y034238
X022238Y034238
X021238Y034238
X020238Y035238
X021238Y035238
X022238Y035238
X020238Y036238
X020238Y037238
X022238Y037238
X021238Y037238
X020238Y038238
X022238Y038238
X021238Y038238
X020238Y039238
X020238Y040238
X022238Y040238
X021238Y040238
X020238Y041238
X021238Y041238
X022238Y041238
X020238Y042238
X020238Y043238
X022238Y043238
X021238Y043238
X020238Y044238
X022238Y044238
X021238Y044238
X020238Y045238
X021238Y045238
X022238Y045238
X020238Y046238
X022238Y046238
X021238Y046238
X020238Y047238
X021238Y047238
X022238Y047238
X020238Y048238
X022238Y048238
X021238Y048238
X020238Y049238
X021238Y049238
X022238Y049238
X020238Y050238
X022238Y050238
X021238Y050238
X020238Y051238
X021238Y051238
X022238Y051238
X020238Y052238
X022238Y052238
X021238Y052238
X020238Y053238
X020238Y054238
X02174Y055043
X023256Y054752
X024238Y054238
X024238Y053238
X024238Y052238
X024238Y051238
X024238Y050238
X023238Y050238
X024238Y049238
X023238Y049238
X024238Y048238
X023238Y048238
X024238Y047238
X023238Y047238
X024238Y046238
X023238Y046238
X024238Y045238
X023238Y045238
X023238Y044238
X024238Y041238
X024238Y040238
X024238Y038238
X024238Y037238
X023238Y035238
X024238Y034238
X023238Y034238
X023238Y033238
X024238Y032238
X023238Y032238
X023238Y031238
X024238Y031238
X023238Y030238
X024238Y029238
X023238Y029238
X023238Y028238
X024238Y028238
X024238Y027238
X023238Y027238
X023238Y026238
X024238Y026238
X023238Y025238
X024238Y025238
X024238Y024238
X024238Y023238
X023238Y022238
X024238Y022238
X024238Y021238
X023238Y021238
X023238Y020238
X024238Y020238
X027238Y020238
X026238Y020238
X025238Y020238
X026238Y021238
X025238Y021238
X027238Y021238
X026238Y022238
X025238Y022238
X025238Y023238
X025238Y024238
X025238Y025238
X025238Y026238
X027238Y026238
X025238Y027238
X027238Y027238
X025238Y028238
X025238Y029238
X025238Y030238
X025238Y031238
X025238Y032238
X027291Y035378
X027268Y035823
X025238Y036238
X025238Y037238
X025238Y038238
X025238Y039238
X025238Y041238
X027238Y041238
X027238Y042238
X025238Y042238
X025238Y043238
X027238Y043238
X027724Y043913
X026238Y044238
X027236Y044303
X027236Y044602
X026238Y045238
X026238Y046238
X026744Y046539
X026713Y047087
X026238Y047238
X027197Y047307
X027154Y047618
X02737Y047945
X026238Y048238
X027238Y049238
X026238Y049238
X027238Y050238
X026238Y050238
X026717Y05113
X027238Y051238
X025238Y053238
X027238Y053238
X026238Y053238
X026238Y054238
X025238Y054238
X027238Y054238
X028238Y054238
X028238Y053238
X028238Y052238
X028238Y051238
X029238Y051238
X028238Y050238
X029238Y050238
X02998Y049295
X029238Y049238
X030161Y048075
X030177Y04765
X030197Y047193
X029394Y046508
X029902Y046075
X030213Y045736
X029654Y045453
X028961Y045146
X028685Y044965
X029421Y044764
X028238Y043238
X028238Y039238
X027791Y035811
X028264Y035799
X028272Y035394
X027787Y035374
X029238Y033238
X029238Y029238
X029238Y028238
X029736Y027531
X028238Y027238
X029238Y027238
X028238Y026238
X029238Y026238
X028238Y024238
X028238Y023238
X028238Y022238
X028238Y021238
X029238Y021238
X029238Y020238
X028238Y020238
X030238Y020238
X031238Y020238
X032238Y020238
X030238Y021238
X031238Y021238
X032238Y021238
X030244Y02574
X031839Y02574
X030238Y026238
X032238Y026238
X031238Y026238
X031287Y027201
X031614Y027217
X032238Y027238
X032238Y028238
X030238Y028238
X032555Y02902
X031224Y03048
X03248Y03048
X031331Y030783
X03252Y030941
X031354Y031087
X031055Y031988
X031213Y043445
X030866Y043453
X031039Y043866
X031244Y044083
X031366Y044354
X031102Y044583
X031063Y044882
X031555Y04522
X030453Y045508
X032248Y045933
X032248Y046232
X031409Y047177
X031043Y04722
X030618Y047228
X031409Y047618
X030996Y04765
X030579Y047677
X031358Y048075
X030579Y048083
X030992Y048087
X03198Y048878
X031567Y049642
X030238Y050238
X032238Y051238
X031238Y051238
X032238Y052238
X032238Y053238
X032238Y054238
X034238Y054238
X033238Y054238
X034238Y053238
X033238Y053238
X034673Y051264
X034238Y049238
X03315Y047224
X033484Y047209
X034224Y046535
X034472Y043488
X034988Y043469
X034238Y041238
X033238Y041238
X034238Y040238
X033238Y040238
X034238Y039238
X033238Y039238
X034238Y038238
X033238Y038238
X033238Y037238
X034238Y037238
X03285Y03526
X03285Y034705
X034724Y033488
X034335Y033488
X033238Y033238
X034238Y031238
X033238Y031238
X03289Y029024
X033238Y027238
X033238Y026238
X033238Y025238
X033238Y024238
X033238Y023238
X034238Y020238
X033238Y020238
X037238Y020238
X035238Y020238
X036238Y020238
X03624Y022
X036238Y023238
X036238Y024238
X036238Y025238
X036238Y026238
X036238Y027238
X037238Y027238
X036681Y030917
X036681Y03137
X037238Y033238
X037238Y034238
X035238Y037238
X035238Y038238
X037238Y039238
X035238Y039238
X037238Y040238
X035238Y040238
X037238Y041238
X036238Y041238
X035238Y041238
X035472Y043469
X036238Y047238
X037238Y047238
X036238Y048238
X037238Y048238
X037238Y049238
X036238Y049238
X036238Y051238
X035238Y051238
X037238Y051238
X037238Y052238
X035238Y053238
X037238Y053238
X036238Y053238
X036238Y054238
X035238Y054238
X037238Y054238
X038238Y054238
X039238Y054238
X038238Y053238
X039238Y053238
X038238Y052238
X038238Y051238
X039238Y051238
X038638Y050736
X039238Y050238
X038238Y049238
X039238Y049238
X038238Y048238
X039238Y048238
X038238Y047238
X039238Y047238
X039327Y046575
X038614Y045516
X039795Y044339
X038469Y039728
X03802Y039728
X03802Y039323
X039783Y038846
X039327Y038346
X039238Y037238
X038185Y035685
X038516Y035685
X038238Y034238
X039969Y033508
X039531Y0335
X038238Y033238
X038992Y033154
X038238Y031238
X038673Y030524
X038531Y02898
X038232Y02898
X040087Y021878
X039142Y021874
X039238Y020238
X038238Y020238
X040238Y020238
X042238Y020238
X041238Y020238
X04128Y021917
X040238Y025238
X041238Y026238
X042238Y027238
X042398Y030543
X042425Y030984
X042238Y034238
X040238Y037238
X042238Y037238
X042238Y039238
X041238Y039238
X040238Y039238
X041238Y040238
X040238Y040238
X042238Y040238
X040238Y041238
X042238Y041238
X041238Y041238
X041248Y045594
X042238Y047238
X040238Y047238
X042238Y048238
X040238Y048238
X040238Y049238
X042238Y049238
X042238Y050238
X040238Y050238
X041248Y05063
X040238Y051238
X042238Y051238
X040238Y052238
X040238Y053238
X042238Y053238
X041238Y053238
X040238Y054238
X042238Y054238
X041238Y054238
X044238Y054238
X043238Y054238
X044238Y053238
X043238Y053238
X043238Y052238
X044238Y051238
X043238Y051238
X043839Y05063
X044238Y050238
X043238Y050238
X044238Y049238
X043238Y049238
X044238Y048238
X043238Y048238
X044238Y047238
X043238Y047238
X043839Y045819
X044238Y041238
X043238Y041238
X043238Y040238
X044238Y040238
X044238Y039238
X043238Y039238
X043238Y038238
X044238Y038238
X044238Y037238
X043238Y037238
X04365Y035665
X044031Y035657
X043238Y034238
X044238Y034238
X044992Y03339
X044461Y033157
X044071Y030524
X043969Y028992
X043642Y028992
X043238Y023238
X044236Y021988
X04324Y021969
X044238Y020238
X043238Y020238
X045238Y020238
X047238Y020238
X046238Y020238
X045299Y022031
X046925Y022043
X047238Y023238
X047587Y02898
X046807Y03024
X046858Y030705
X047238Y033238
X045421Y03335
X046238Y034238
X047238Y034238
X047496Y035819
X046238Y037238
X045238Y037238
X047238Y037238
X046238Y038238
X045238Y038238
X047238Y038238
X046238Y039238
X045238Y039238
X047238Y039238
X045238Y040238
X047238Y040238
X046238Y040238
X046238Y041238
X045238Y041238
X047238Y041238
X04739Y04428
X046457Y04598
X045238Y046238
X047238Y046238
X045238Y047238
X047238Y047238
X045238Y048238
X047238Y048238
X047238Y049238
X045238Y049238
X045238Y050238
X047238Y050238
X046492Y050587
X047238Y051238
X045238Y051238
X045238Y052238
X045238Y053238
X046238Y053238
X047238Y053238
X046238Y054238
X045238Y054238
X047238Y054238
X048238Y054238
X049238Y054238
X048238Y053238
X049238Y053238
X048238Y052238
X048238Y051238
X049138Y050705
X048238Y050238
X048238Y049238
X048238Y048238
X048238Y047238
X048238Y046238
X049126Y045764
X049079Y04489
X049543Y044756
X049031Y044594
X047835Y04435
X049055Y044276
X049238Y041238
X049238Y040238
X049799Y039728
X049445Y039728
X049238Y039238
X049941Y039169
X049238Y038238
X049238Y037238
X047878Y035827
X0495Y035205
X0495Y033154
X04798Y032642
X048Y030496
X048047Y03002
X047886Y02898
X049238Y025238
X048238Y024238
X048126Y021969
X049173Y021945
X048238Y020238
X049238Y020238
X051238Y020238
X050238Y020238
X052238Y020238
X05126Y021917
X050323Y021945
X052287Y021961
X050238Y023238
X050238Y024238
X051238Y024238
X051238Y025238
X050238Y026238
X052012Y026657
X051689Y028469
X051626Y030386
X052685Y034114
X052238Y034238
X051238Y034238
X051039Y035039
X052238Y035238
X050567Y035748
X051238Y036238
X052238Y036238
X052238Y037238
X051238Y037238
X052238Y038238
X051238Y038238
X052238Y039238
X051238Y039238
X051238Y040238
X052238Y040238
X050238Y040238
X050238Y041238
X051238Y042238
X051917Y045984
X051238Y046238
X052238Y046238
X050238Y046238
X051238Y047238
X052238Y047238
X050238Y047238
X050238Y048238
X052238Y048238
X051238Y048238
X052238Y049238
X050238Y049238
X051238Y049238
X050238Y050238
X052238Y050238
X051238Y050238
X051921Y05065
X051238Y051238
X052238Y051238
X050238Y051238
X051238Y052238
X050238Y053238
X052238Y053238
X051238Y053238
X050238Y054238
X052238Y054238
X051238Y054238
X053238Y054238
X053238Y053238
X053238Y052238
X054238Y051238
X053238Y051238
X054238Y050238
X053238Y050238
X054238Y049238
X053238Y049238
X054238Y048238
X053238Y048238
X053238Y047238
X054238Y047238
X053238Y046238
X054238Y046238
X054238Y043238
X053238Y043238
X054238Y042238
X053238Y042238
X053238Y041238
X054238Y041238
X053238Y040238
X054238Y040238
X053238Y039238
X054238Y039238
X054238Y038238
X053238Y038238
X054238Y037238
X053238Y037238
X054238Y036238
X053238Y036238
X054238Y035238
X053238Y035238
X054673Y034114
X054238Y033238
X054238Y032238
X054238Y031238
X054238Y030238
X054238Y028238
X053238Y027238
X054238Y026238
X054238Y024238
X053283Y021949
X054238Y020238
X053238Y020238
X055238Y020238
X057238Y020238
X056238Y020238
X056197Y021878
X057299Y021898
X056238Y024238
X055238Y025238
X056238Y025238
X056238Y026238
X055238Y026238
X055238Y027238
X057238Y027238
X057238Y028238
X056238Y028238
X057238Y029238
X056238Y029238
X057238Y030238
X057238Y031238
X056238Y031238
X056238Y032238
X057238Y032238
X057238Y033238
X056238Y033238
X057238Y034238
X056238Y034238
X056238Y035238
X057238Y035238
X057238Y036238
X056238Y036238
X057238Y037238
X056238Y037238
X057238Y038238
X055238Y040238
X05685Y040937
X056238Y041238
X055238Y041238
X057134Y041244
X057398Y04152
X057642Y041744
X055238Y042238
X055238Y043238
X056433Y044476
X056268Y04478
X056331Y045547
X056374Y046169
X057465Y047949
X055238Y049238
X05685Y050161
X057238Y050238
X055238Y050238
X056238Y050238
X057238Y051238
X055238Y051238
X058238Y054238
X059238Y054238
X058238Y053238
X059238Y053238
X058238Y052238
X059238Y052238
X058238Y051238
X059238Y051238
X058238Y050238
X059238Y050238
X058772Y048374
X058331Y048028
X058238Y047238
X057925Y046449
X058394Y046449
X058957Y046394
X059272Y046378
X058362Y045291
X058602Y045063
X058933Y04478
X059252Y044512
X060075Y042402
X058114Y04226
X059238Y042238
X058362Y042043
X057886Y042004
X058559Y041791
X059238Y041238
X058949Y039646
X059472Y039591
X058238Y039238
X05965Y038437
X060177Y038409
X058238Y038238
X060213Y037945
X059669Y037913
X060205Y037386
X059661Y037374
X058238Y037238
X058238Y036238
X05874Y036106
X058961Y035843
X059209Y035543
X058238Y035238
X059238Y033238
X058238Y033238
X058238Y032238
X059238Y032238
X059238Y031238
X058238Y031238
X058238Y030238
X059238Y030238
X059238Y029238
X058238Y029238
X058238Y028238
X059238Y028238
X058238Y027238
X059238Y027238
X059238Y026238
X059238Y025238
X059238Y024238
X05926Y022012
X058323Y021906
X059238Y020238
X058238Y020238
X062238Y020238
X061238Y020238
X060238Y020238
X061238Y021238
X062238Y021238
X062238Y022238
X061238Y022238
X061238Y023238
X060238Y024238
X061238Y024238
X060238Y025238
X062238Y025238
X061238Y025238
X062238Y026238
X060238Y026238
X061238Y026238
X060238Y027238
X061238Y027238
X062238Y027238
X060238Y028238
X062238Y028238
X061238Y028238
X061238Y029238
X060238Y029238
X062238Y029238
X061238Y030238
X060238Y030238
X061238Y031238
X060238Y031238
X062238Y031238
X060238Y032238
X061238Y032238
X062238Y032238
X061238Y033238
X062238Y033238
X060238Y033238
X062238Y034238
X061238Y035238
X062238Y035238
X061238Y036238
X062238Y036238
X061238Y037238
X062238Y037238
X062238Y038238
X061238Y038238
X062238Y039238
X061238Y039238
X062238Y040238
X061238Y040238
X06028Y040323
X062238Y041238
X061238Y041238
X061238Y042238
X062238Y042238
X060496Y042366
X062238Y043238
X060238Y044238
X060238Y045238
X062238Y049238
X060238Y050238
X061238Y050238
X062238Y050238
X061238Y051238
X060238Y051238
X060238Y052238
X061238Y052238
X060238Y053238
X061238Y053238
X062238Y053238
X060238Y054238
X062238Y054238
X061238Y054238
X064238Y052238
X063238Y052238
X064238Y051238
X064238Y050238
X063238Y050238
X064238Y049238
X063238Y049238
X064238Y048238
X064614Y047252
X064567Y046602
X063238Y046238
X064238Y046238
X064238Y045238
X063238Y044238
X064238Y044238
X063238Y043238
X064238Y043238
X064238Y042238
X063238Y042238
X064238Y041238
X063238Y041238
X064238Y040238
X063238Y040238
X063238Y039238
X064238Y039238
X064238Y038238
X063238Y038238
X063238Y037238
X064238Y037238
X063238Y036238
X064238Y036238
X063238Y035238
X064238Y035238
X063238Y034238
X064238Y034238
X064238Y033238
X063238Y033238
X063238Y032238
X064238Y032238
X063238Y031238
X064238Y031238
X063238Y030238
X064238Y030238
X063238Y029238
X064238Y029238
X063238Y028238
X064238Y028238
X064238Y027238
X063238Y027238
X064238Y026238
X063238Y026238
X064238Y025238
X063238Y025238
X064238Y024238
X063238Y023238
X064238Y023238
X063238Y020238
X064238Y020238
X065238Y020238
X065238Y022238
X065238Y023238
X065238Y024238
X065238Y025238
X065238Y026238
X065238Y027238
X065238Y028238
X065238Y029238
X065238Y030238
X065238Y031238
X065238Y032238
X065238Y033238
X065238Y034238
X065238Y035238
X065238Y036238
X065238Y037238
X065238Y038238
X065238Y039238
X065238Y040238
X065238Y041238
X065238Y042238
X065238Y043238
X065238Y044238
X065238Y045238
X065238Y046238
X065238Y047238
X065238Y048238
X065238Y049238
X065238Y050238
X065238Y051238
X065238Y052238
X065238Y053238
X065238Y054238
T2C.02756F197S55
X036163Y037965
X036163Y038945
X036163Y039925
T3C.0315F197S55
X027047Y022835
X026047Y022835
X025591Y052559
X026378Y052559
X027165Y052559
X033661Y05252
X034661Y05252
X034386Y022846
X030244Y022835
X031244Y022835
X029244Y022835
X032244Y022835
X037508Y022815
X038508Y022815
X035386Y022846
X038642Y052508
X03943Y052508
X036661Y05252
X035661Y05252
X041227Y052499
X042014Y052499
X043849Y052497
X044636Y052497
X044706Y022869
X040767Y022854
X041767Y022854
X045706Y022869
X047861Y022871
X048861Y022871
X047227Y052526
X04644Y052526
X049093Y05254
X04988Y05254
X05189Y052559
X052677Y052559
X051658Y022899
X050871Y022899
X052446Y022899
X054021Y022899
X053233Y022899
X054808Y022899
X057382Y022902
X056594Y022902
X059744Y022902
X058169Y022902
X058956Y022902
X060531Y022902
T4C.03543F197S55
X033026Y050354
X034026Y050354
X035026Y050354
X036026Y050354
X037026Y050354
X038026Y050354
T5C.05118F107S55
X029519Y052707
X031487Y052707
X030503Y053691
X031487Y054675
X029519Y054675
T6C.05315F107S55
X054717Y052508
X054717Y054531
X05674Y054531
X055728Y05352
X05674Y052508
M30
