*
*
G04 PADS 9.5 Build Number: 522968 generated Gerber (RS-274-X) file*
G04 PC Version=2.1*
*
%IN "ATPO-1804-AD-15_0927.pc"*%
*
%MOIN*%
*
%FSLAX35Y35*%
*
*
*
*
G04 PC Standard Apertures*
*
*
G04 Thermal Relief Aperture macro.*
%AMTER*
1,1,$1,0,0*
1,0,$1-$2,0,0*
21,0,$3,$4,0,0,45*
21,0,$3,$4,0,0,135*
%
*
*
G04 Annular Aperture macro.*
%AMANN*
1,1,$1,0,0*
1,0,$2,0,0*
%
*
*
G04 Odd Aperture macro.*
%AMODD*
1,1,$1,0,0*
1,0,$1-0.005,0,0*
%
*
*
G04 PC Custom Aperture Macros*
*
*
*
*
*
*
G04 PC Aperture Table*
*
%ADD010C,0.001*%
%ADD087C,0.06905*%
%ADD089R,0.07181X0.07181*%
%ADD090C,0.07181*%
%ADD094C,0.07299*%
%ADD099C,0.10843*%
%ADD100C,0.08874*%
%ADD125C,0.06512*%
%ADD126C,0.04937*%
*
*
*
*
G04 PC Circuitry*
G04 Layer Name ATPO-1804-AD-15_0927.pc - circuitry*
%LPD*%
*
*
G04 PC Custom Flashes*
G04 Layer Name ATPO-1804-AD-15_0927.pc - flashes*
%LPD*%
*
*
G04 PC Circuitry*
G04 Layer Name ATPO-1804-AD-15_0927.pc - circuitry*
%LPD*%
*
G54D10*
G01X656693Y200000D02*
Y554331D01*
X200000*
Y200000*
X656693*
X632087Y239370D02*
G75*
G03X632087I-6890J0D01*
G01Y514961D02*
G03X632087I-6890J0D01*
G01X238386D02*
G03X238386I-6890J0D01*
G01Y239370D02*
G03X238386I-6890J0D01*
G54D87*
G01X417665Y228544D03*
X407665D03*
X457061Y228694D03*
X447061D03*
X488608Y228708D03*
X478608D03*
X385079Y228150D03*
X375079D03*
X605313Y229017D03*
X597439D03*
X589565D03*
X581691D03*
X573817D03*
X565943D03*
X353858Y228465D03*
X343858D03*
X548079Y228995D03*
X540205D03*
X532331D03*
X524457D03*
X516583D03*
X508709D03*
X322441Y228346D03*
X312441D03*
X302441D03*
X292441D03*
X270472D03*
X260472D03*
X518898Y525591D03*
X526772D03*
X490928Y525399D03*
X498802D03*
X464398Y525262D03*
X472272D03*
X438487Y524969D03*
X446361D03*
X412271Y524991D03*
X420145D03*
X386423Y525082D03*
X394297D03*
X336614Y525197D03*
X346614D03*
X356614D03*
X366614D03*
X255906Y525591D03*
X263780D03*
X271654D03*
G54D89*
X330261Y503543D03*
G54D90*
X340261D03*
X350261D03*
X360261D03*
X370261D03*
X380261D03*
G54D94*
X361631Y379649D03*
Y389449D03*
Y399249D03*
G54D99*
X557283Y535197D03*
X567402Y525079D03*
Y545315D03*
X547165D03*
Y525079D03*
G54D100*
X305030Y536910D03*
X314872Y527068D03*
Y546753D03*
X295187D03*
Y527068D03*
G54D125*
X559350Y451311D03*
X559540Y458967D03*
G54D126*
X223622Y219685D03*
X633071D03*
X223622Y534646D03*
X633071D03*
G74*
X0Y0D02*
M02*
